<svg xmlns="http://www.w3.org/2000/svg" xmlns:xlink="http://www.w3.org/1999/xlink" preserveAspectRatio="xMidYMid" width="845" height="845" viewBox="0 0 845 845">
  <defs>
    <style>
      .cls-1 {
        fill: #3e434c;
        fill-rule: evenodd;
      }
    </style>
  </defs>
  <path d="M30.007,532.526 L312.474,532.526 L312.474,814.993 C312.474,831.597 325.877,845.000 342.481,845.000 L502.519,845.000 C519.123,845.000 532.526,831.597 532.526,814.993 L532.526,532.526 L814.993,532.526 C831.597,532.526 845.000,519.123 845.000,502.519 L845.000,342.481 C845.000,325.877 831.597,312.474 814.993,312.474 L532.526,312.474 L532.526,30.007 C532.526,13.403 519.123,0.000 502.519,0.000 L342.481,0.000 C325.877,0.000 312.474,13.403 312.474,30.007 L312.474,312.474 L30.007,312.474 C13.403,312.474 0.000,325.877 0.000,342.481 L0.000,502.519 C0.000,519.123 13.403,532.526 30.007,532.526 Z" class="cls-1"/>
</svg>
