<svg xmlns="http://www.w3.org/2000/svg" xmlns:xlink="http://www.w3.org/1999/xlink" preserveAspectRatio="xMidYMid" width="489.281" height="612" viewBox="0 0 489.281 612">
  <defs>
    <style>
      .cls-1 {
        fill: #25282e;
        fill-rule: evenodd;
      }
    </style>
  </defs>
  <path d="M460.242,574.192 C436.815,582.652 412.624,588.931 388.274,594.076 C341.244,604.017 292.767,611.657 244.497,612.000 C196.228,611.658 147.751,604.017 100.721,594.076 C76.370,588.929 52.182,582.650 28.752,574.192 C10.042,567.433 -1.001,564.295 -0.236,541.908 C0.752,513.004 4.137,483.969 9.177,455.515 C15.281,421.046 23.050,370.513 53.116,348.050 C70.500,335.061 93.015,330.801 112.919,322.969 C122.606,319.161 131.284,315.376 139.429,311.068 C166.916,341.246 202.758,357.032 244.490,357.032 C286.234,357.030 322.080,341.244 349.571,311.068 C357.715,315.375 366.394,319.159 376.081,322.969 C395.985,330.801 418.499,335.062 435.886,348.050 C465.949,370.513 473.720,421.046 479.824,455.515 C484.863,483.969 488.247,513.004 489.236,541.908 C490.001,564.297 478.959,567.435 460.242,574.192 ZM244.502,325.988 C154.028,325.995 121.487,235.304 112.956,160.820 C102.450,69.055 145.820,-0.000 244.502,-0.000 C343.201,-0.000 386.546,69.060 376.049,160.821 C367.525,235.306 334.974,325.983 244.502,325.988 Z" class="cls-1"/>
</svg>
