<svg xmlns="http://www.w3.org/2000/svg" xmlns:xlink="http://www.w3.org/1999/xlink" preserveAspectRatio="xMidYMid" width="15" height="15" viewBox="0 0 15 15">
  <defs>
    <style>
      .cls-1 {
        fill: #fff;
        fill-rule: evenodd;
      }
    </style>
  </defs>
  <path d="M14.192,0.807 C13.672,0.286 12.980,-0.000 12.244,-0.000 C11.509,-0.000 10.817,0.286 10.297,0.806 L2.013,9.043 C1.964,9.091 1.926,9.150 1.903,9.215 L0.028,14.371 C-0.032,14.538 0.007,14.725 0.129,14.854 C0.219,14.949 0.342,15.000 0.469,15.000 C0.515,15.000 0.560,14.994 0.606,14.979 L5.270,13.549 C5.343,13.527 5.409,13.487 5.464,13.433 L14.192,4.704 C14.713,4.184 15.000,3.491 15.000,2.755 C14.999,2.020 14.713,1.327 14.192,0.807 ZM4.731,12.734 L2.985,13.270 C2.884,12.971 2.725,12.707 2.509,12.491 C2.321,12.303 2.103,12.158 1.874,12.040 L2.672,9.844 L3.750,9.844 L3.750,10.781 C3.750,11.040 3.959,11.250 4.219,11.250 L5.046,11.250 L4.731,12.734 ZM11.631,5.939 L5.920,11.651 L6.084,10.879 C6.113,10.740 6.078,10.596 5.989,10.486 C5.900,10.376 5.766,10.312 5.625,10.312 L4.687,10.312 L4.687,9.375 C4.687,9.116 4.477,8.906 4.219,8.906 L3.479,8.906 L9.054,3.363 L9.060,3.368 C9.403,3.025 9.860,2.836 10.345,2.836 C10.831,2.836 11.287,3.025 11.631,3.368 C11.973,3.712 12.164,4.169 12.164,4.654 C12.164,5.140 11.975,5.596 11.631,5.939 ZM13.530,4.041 L13.092,4.478 C13.050,3.809 12.772,3.184 12.294,2.706 C11.815,2.227 11.190,1.949 10.518,1.907 L10.958,1.471 L10.959,1.470 C11.302,1.126 11.759,0.937 12.244,0.937 C12.730,0.937 13.186,1.126 13.530,1.470 C13.873,1.814 14.062,2.270 14.062,2.755 C14.062,3.241 13.874,3.698 13.530,4.041 ZM10.450,3.887 L5.762,8.575 C5.579,8.758 5.579,9.055 5.762,9.238 C5.854,9.329 5.974,9.375 6.094,9.375 C6.214,9.375 6.333,9.329 6.425,9.238 L11.113,4.550 C11.296,4.367 11.296,4.071 11.113,3.887 C10.930,3.704 10.633,3.704 10.450,3.887 Z" class="cls-1"/>
</svg>
