<svg xmlns="http://www.w3.org/2000/svg" xmlns:xlink="http://www.w3.org/1999/xlink" preserveAspectRatio="xMidYMid" width="64.5" height="64.5" viewBox="0 0 64.5 64.5">
  <defs>
    <style>
      .cls-1 {
        fill: #f6f6f6;
        fill-rule: evenodd;
      }
    </style>
  </defs>
  <path d="M32.249,64.500 C24.828,64.500 17.990,61.973 12.534,57.744 L13.557,56.845 C18.752,60.802 25.229,63.159 32.249,63.159 C49.294,63.159 63.159,49.294 63.159,32.251 C63.159,26.647 61.653,21.392 59.035,16.855 L60.062,15.953 C62.877,20.739 64.500,26.308 64.500,32.251 C64.500,50.032 50.032,64.500 32.249,64.500 ZM32.249,1.341 C15.206,1.341 1.341,15.206 1.341,32.251 C1.341,37.946 2.896,43.282 5.593,47.868 L4.567,48.771 C1.670,43.936 0.000,38.285 0.000,32.251 C0.000,14.468 14.468,-0.000 32.249,-0.000 C39.763,-0.000 46.679,2.590 52.168,6.915 L51.145,7.814 C45.916,3.762 39.362,1.341 32.249,1.341 Z" class="cls-1"/>
</svg>
