<svg xmlns="http://www.w3.org/2000/svg" xmlns:xlink="http://www.w3.org/1999/xlink" preserveAspectRatio="xMidYMid" width="27" height="27" viewBox="0 0 27 27">
  <defs>
    <style>
      .cls-1 {
        fill: #f6f6f6;
        fill-rule: evenodd;
      }
    </style>
  </defs>
  <path d="M25.307,27.002 C25.080,27.002 24.853,26.959 24.643,26.868 C24.038,26.609 23.639,25.963 23.625,25.312 C23.622,24.741 23.919,24.235 24.340,23.874 C24.390,23.833 24.442,23.792 24.498,23.758 C24.588,23.694 24.643,23.662 24.643,23.662 C24.643,23.662 24.579,23.673 24.471,23.705 C24.320,23.749 24.169,23.807 24.029,23.880 C23.817,23.979 23.622,24.121 23.453,24.278 C23.357,24.369 23.267,24.473 23.179,24.590 C23.159,24.619 23.139,24.651 23.118,24.680 C23.115,24.683 23.115,24.686 23.113,24.689 L20.802,22.378 L19.164,24.017 C18.984,24.197 18.687,24.197 18.506,24.017 L17.858,23.368 C17.677,23.187 17.677,22.890 17.858,22.710 L22.702,17.862 C22.883,17.681 23.179,17.681 23.360,17.862 L24.009,18.508 C24.189,18.688 24.189,18.985 24.009,19.165 L22.371,20.804 L25.187,23.621 C25.225,23.618 25.266,23.615 25.307,23.615 C26.243,23.615 27.000,24.372 27.000,25.309 C27.000,26.246 26.241,27.002 25.307,27.002 ZM6.402,6.437 L18.920,19.788 L17.872,20.836 L2.410,9.123 C2.142,8.919 1.953,8.628 1.874,8.302 L0.012,0.538 C-0.064,0.221 0.219,-0.061 0.536,0.008 L8.366,1.798 C8.703,1.877 9.000,2.069 9.207,2.345 L20.834,17.873 L19.752,18.956 L6.402,6.437 Z" class="cls-1"/>
</svg>
