<svg xmlns="http://www.w3.org/2000/svg" xmlns:xlink="http://www.w3.org/1999/xlink" preserveAspectRatio="xMidYMid" width="25.687" height="26.563" viewBox="0 0 25.687 26.563">
  <defs>
    <style>
      .cls-1 {
        fill: #f6f6f6;
        fill-rule: evenodd;
      }
    </style>
  </defs>
  <path d="M25.630,19.337 C25.530,19.548 25.316,19.684 25.081,19.684 L18.663,19.684 L18.663,25.950 C18.663,26.286 18.390,26.558 18.054,26.558 L14.076,26.558 C13.740,26.558 13.467,26.286 13.467,25.950 L13.467,22.119 L14.017,22.119 C14.595,22.119 15.128,21.782 15.376,21.260 C15.624,20.738 15.548,20.112 15.182,19.665 L13.540,17.656 C13.687,17.573 13.814,17.459 13.927,17.331 C14.013,17.232 14.093,17.126 14.152,17.005 C14.400,16.491 14.333,15.869 13.979,15.419 L11.983,12.896 C12.145,12.764 12.281,12.598 12.379,12.404 C12.533,12.100 12.564,11.765 12.503,11.445 C12.461,11.230 12.386,11.021 12.251,10.837 L11.178,9.376 L12.086,8.227 L10.913,8.227 C10.683,8.227 10.473,8.099 10.370,7.894 C10.266,7.690 10.287,7.445 10.422,7.259 L15.575,0.241 C15.689,0.086 15.871,-0.007 16.065,-0.007 C16.259,-0.007 16.441,0.086 16.555,0.241 L21.708,7.260 C21.843,7.445 21.864,7.690 21.760,7.894 C21.656,8.099 21.446,8.227 21.217,8.227 L20.044,8.227 L23.979,13.202 C24.123,13.386 24.151,13.635 24.049,13.845 C23.947,14.055 23.735,14.188 23.501,14.188 L21.870,14.188 L25.552,18.692 C25.701,18.873 25.731,19.124 25.630,19.337 ZM11.580,12.000 C11.477,12.204 11.266,12.333 11.037,12.333 L10.395,12.333 L13.275,15.973 C13.419,16.157 13.446,16.406 13.345,16.615 C13.243,16.825 13.030,16.958 12.797,16.958 L11.812,16.958 L14.488,20.231 C14.637,20.413 14.668,20.664 14.567,20.876 C14.466,21.088 14.252,21.223 14.017,21.223 L9.324,21.223 L9.324,22.119 L9.324,25.950 C9.324,26.286 9.051,26.558 8.715,26.558 L5.901,26.558 C5.565,26.558 5.292,26.286 5.292,25.950 L5.292,22.119 L5.292,21.223 L0.598,21.223 C0.364,21.223 0.150,21.088 0.049,20.876 C-0.052,20.664 -0.021,20.413 0.127,20.231 L2.803,16.958 L1.819,16.958 C1.585,16.958 1.372,16.825 1.271,16.615 C1.169,16.406 1.196,16.157 1.341,15.973 L4.220,12.333 L3.579,12.333 C3.349,12.333 3.139,12.204 3.036,12.000 C2.932,11.795 2.952,11.550 3.088,11.365 L7.015,6.015 C7.084,5.922 7.192,5.867 7.308,5.867 C7.423,5.867 7.532,5.922 7.601,6.015 L11.528,11.365 C11.663,11.550 11.683,11.795 11.580,12.000 Z" class="cls-1"/>
</svg>
