<svg xmlns="http://www.w3.org/2000/svg" xmlns:xlink="http://www.w3.org/1999/xlink" preserveAspectRatio="xMidYMid" width="20" height="27" viewBox="0 0 20 27">
  <defs>
    <style>
      .cls-1 {
        fill: #f6f6f6;
        fill-rule: evenodd;
      }
    </style>
  </defs>
  <path d="M19.599,3.283 C11.713,3.283 10.378,0.289 10.365,0.261 C10.308,0.114 10.166,0.016 10.002,0.013 C10.002,0.013 10.000,0.013 9.997,0.013 C9.839,0.013 9.695,0.111 9.635,0.254 C9.623,0.286 8.259,3.283 0.401,3.283 C0.182,3.283 0.008,3.461 0.008,3.675 L0.008,17.092 C0.008,22.584 9.442,26.779 9.841,26.955 C9.893,26.979 9.945,26.987 10.000,26.987 C10.052,26.987 10.108,26.979 10.157,26.955 C10.560,26.779 19.992,22.584 19.992,17.092 L19.992,3.675 C19.991,3.461 19.817,3.283 19.599,3.283 ZM17.824,16.311 C17.824,20.608 10.438,23.896 10.123,24.032 C10.084,24.051 10.040,24.058 10.000,24.058 C9.957,24.058 9.917,24.051 9.874,24.032 C9.564,23.896 2.178,20.608 2.178,16.311 L2.178,5.810 C2.178,5.641 2.315,5.501 2.485,5.501 C8.639,5.501 9.704,3.155 9.715,3.132 C9.764,3.019 9.875,2.943 10.000,2.943 C10.001,2.943 10.003,2.943 10.003,2.943 C10.130,2.944 10.241,3.021 10.287,3.137 C10.296,3.159 11.342,5.501 17.516,5.501 C17.687,5.501 17.824,5.641 17.824,5.810 L17.824,16.311 ZM16.350,16.197 C16.350,19.688 10.354,22.353 10.098,22.463 C10.068,22.481 10.031,22.486 9.999,22.486 C9.964,22.486 9.899,5.345 9.999,5.345 L10.000,5.345 C10.103,5.347 10.196,5.408 10.231,5.503 C10.238,5.521 11.087,7.422 16.099,7.422 C16.239,7.422 16.350,7.535 16.350,7.671 L16.350,16.197 Z" class="cls-1"/>
</svg>
