<svg xmlns="http://www.w3.org/2000/svg" xmlns:xlink="http://www.w3.org/1999/xlink" preserveAspectRatio="xMidYMid" width="22" height="22" viewBox="0 0 22 22">
  <defs>
    <style>
      .cls-1 {
        fill: #f6f6f6;
        fill-rule: evenodd;
      }
    </style>
  </defs>
  <path d="M21.565,8.437 C21.273,8.145 20.919,7.999 20.502,7.999 L14.001,7.999 L14.001,1.498 C14.001,1.081 13.854,0.727 13.563,0.435 C13.271,0.143 12.917,-0.003 12.500,-0.003 L9.500,-0.003 C9.083,-0.003 8.729,0.143 8.437,0.435 C8.145,0.727 7.999,1.081 7.999,1.498 L7.999,7.999 L1.498,7.999 C1.081,7.999 0.727,8.145 0.435,8.437 C0.143,8.729 -0.003,9.083 -0.003,9.500 L-0.003,12.501 C-0.003,12.917 0.143,13.272 0.435,13.563 C0.727,13.855 1.081,14.001 1.498,14.001 L7.999,14.001 L7.999,20.503 C7.999,20.919 8.145,21.274 8.437,21.565 C8.729,21.857 9.083,22.003 9.500,22.003 L12.500,22.003 C12.917,22.003 13.271,21.857 13.563,21.565 C13.855,21.273 14.001,20.919 14.001,20.503 L14.001,14.001 L20.502,14.001 C20.919,14.001 21.273,13.855 21.565,13.563 C21.857,13.272 22.003,12.917 22.003,12.501 L22.003,9.500 C22.003,9.083 21.857,8.729 21.565,8.437 Z" class="cls-1"/>
</svg>
