<svg xmlns="http://www.w3.org/2000/svg" xmlns:xlink="http://www.w3.org/1999/xlink" preserveAspectRatio="xMidYMid" width="24" height="21.062" viewBox="0 0 24 21.062">
  <defs>
    <style>
      .cls-1 {
        fill: #f6f6f6;
        fill-rule: evenodd;
      }
    </style>
  </defs>
  <path d="M20.498,15.149 C20.355,15.272 20.145,15.272 20.002,15.149 C19.859,15.030 19.825,14.819 19.922,14.657 C19.955,14.607 22.885,9.555 21.141,6.006 C20.783,8.564 19.199,14.840 12.154,19.028 C9.897,20.370 7.812,21.052 5.958,21.052 C3.953,21.052 2.259,20.218 1.187,18.706 C-0.074,16.923 -0.356,14.353 0.456,11.990 C0.527,11.782 2.263,6.988 4.735,5.709 C4.890,5.629 5.075,5.663 5.193,5.790 C5.311,5.917 5.327,6.107 5.239,6.256 C5.201,6.319 1.754,12.087 3.772,15.733 C3.785,14.704 3.944,13.320 4.638,12.621 C4.752,12.502 4.924,12.472 5.067,12.540 C5.214,12.604 5.302,12.756 5.294,12.917 C5.294,12.925 5.239,13.955 5.865,14.624 C6.282,15.068 6.908,15.267 7.770,15.212 C9.619,15.090 11.406,13.709 12.683,12.468 C14.722,10.486 16.202,7.869 16.483,5.002 C16.534,4.490 16.538,3.944 16.273,3.503 C16.004,3.050 15.483,2.796 14.966,2.720 C13.705,2.538 12.385,2.987 11.338,3.664 L11.212,3.706 C11.040,3.825 10.809,3.757 10.687,3.588 C10.565,3.418 10.603,3.173 10.767,3.046 C10.926,2.923 14.768,0.009 18.375,0.009 C19.737,0.009 20.897,0.424 21.818,1.250 C23.280,2.563 24.033,4.507 24.003,6.874 C23.961,9.978 22.490,13.455 20.498,15.149 ZM14.802,6.027 C14.806,6.074 14.936,7.340 14.218,8.352 C14.117,8.496 13.932,8.551 13.768,8.487 C13.604,8.424 13.503,8.255 13.524,8.081 C13.566,7.746 13.591,6.785 13.226,6.370 C13.041,6.163 12.768,6.124 12.381,6.239 C12.179,6.315 11.738,6.506 11.338,6.751 C11.826,6.844 12.196,7.065 12.423,7.408 C12.776,7.937 12.751,8.704 12.351,9.686 C11.095,12.773 8.913,13.895 7.753,13.895 C7.715,13.895 7.681,13.895 7.644,13.891 C7.080,13.853 6.563,13.514 6.214,12.968 C5.693,12.104 5.706,10.880 6.252,9.614 C6.328,9.436 6.525,9.343 6.715,9.398 C6.900,9.453 7.017,9.639 6.984,9.834 C6.975,9.893 6.748,11.355 7.694,11.515 C8.106,11.583 8.488,11.443 8.875,11.109 C7.938,11.088 7.391,10.520 7.375,9.550 C7.341,7.484 9.665,5.358 10.472,4.858 C11.452,4.253 12.293,3.944 12.973,3.944 C13.587,3.944 14.642,4.215 14.802,6.027 Z" class="cls-1"/>
</svg>
