<svg xmlns="http://www.w3.org/2000/svg" xmlns:xlink="http://www.w3.org/1999/xlink" preserveAspectRatio="xMidYMid" width="27" height="13" viewBox="0 0 27 13">
  <defs>
    <style>
      .cls-1 {
        fill: #fff;
        fill-rule: evenodd;
      }
    </style>
  </defs>
  <path d="M26.567,6.933 L0.433,6.933 C0.194,6.933 0.000,6.739 0.000,6.500 C0.000,6.261 0.194,6.067 0.433,6.067 L26.567,6.067 C26.806,6.067 27.000,6.261 27.000,6.500 C27.000,6.739 26.806,6.933 26.567,6.933 ZM26.567,0.867 L0.433,0.867 C0.194,0.867 0.000,0.673 0.000,0.433 C0.000,0.194 0.194,-0.000 0.433,-0.000 L26.567,-0.000 C26.806,-0.000 27.000,0.194 27.000,0.433 C27.000,0.673 26.806,0.867 26.567,0.867 ZM0.433,12.133 L26.567,12.133 C26.806,12.133 27.000,12.327 27.000,12.567 C27.000,12.806 26.806,13.000 26.567,13.000 L0.433,13.000 C0.194,13.000 0.000,12.806 0.000,12.567 C0.000,12.327 0.194,12.133 0.433,12.133 Z" class="cls-1"/>
</svg>
