<svg xmlns="http://www.w3.org/2000/svg" xmlns:xlink="http://www.w3.org/1999/xlink" preserveAspectRatio="xMidYMid" width="31.5" height="31.5" viewBox="0 0 31.5 31.5">
  <defs>
    <style>
      .cls-1 {
        fill: #22beca;
        fill-rule: evenodd;
      }
    </style>
  </defs>
  <path d="M31.834,1.552 C32.139,1.091 32.012,0.472 31.552,0.166 C31.090,-0.139 30.471,-0.013 30.166,0.449 L26.467,6.048 C26.313,6.023 26.159,6.000 25.999,6.000 C24.346,6.000 22.999,7.347 22.999,9.000 C22.999,9.318 23.063,9.619 23.155,9.907 L19.582,14.462 C19.121,14.174 18.582,14.000 18.000,14.000 C16.387,14.000 15.076,15.283 15.012,16.881 L9.361,20.171 C8.812,19.464 7.963,19.000 7.000,19.000 C5.346,19.000 4.000,20.346 4.000,22.000 C4.000,22.651 4.214,23.250 4.566,23.741 L0.164,30.451 C-0.139,30.913 -0.011,31.533 0.451,31.836 C0.620,31.948 0.811,32.000 0.999,32.000 C1.325,32.000 1.645,31.842 1.836,31.549 L6.211,24.882 C6.464,24.951 6.726,25.000 7.000,25.000 C8.613,25.000 9.924,23.718 9.988,22.119 L15.639,18.830 C16.188,19.536 17.037,20.000 18.000,20.000 C19.655,20.000 21.000,18.655 21.000,17.000 C21.000,16.682 20.938,16.381 20.846,16.094 L24.417,11.539 C24.878,11.826 25.417,12.000 25.999,12.000 C27.653,12.000 28.999,10.654 28.999,9.000 C28.999,8.233 28.701,7.541 28.227,7.010 L31.834,1.552 ZM7.000,23.000 C6.448,23.000 6.000,22.552 6.000,22.000 C6.000,21.449 6.448,21.000 7.000,21.000 C7.552,21.000 8.000,21.449 8.000,22.000 C8.000,22.552 7.552,23.000 7.000,23.000 ZM18.000,18.000 C17.448,18.000 17.000,17.552 17.000,17.000 C17.000,16.449 17.448,16.000 18.000,16.000 C18.552,16.000 19.000,16.449 19.000,17.000 C19.000,17.552 18.552,18.000 18.000,18.000 ZM25.999,10.000 C25.448,10.000 24.999,9.552 24.999,9.000 C24.999,8.449 25.448,8.000 25.999,8.000 C26.551,8.000 26.999,8.449 26.999,9.000 C26.999,9.552 26.551,10.000 25.999,10.000 ZM6.000,30.000 C5.447,30.000 5.000,30.448 5.000,31.000 C5.000,31.553 5.447,32.000 6.000,32.000 C6.553,32.000 7.000,31.553 7.000,31.000 C7.000,30.448 6.553,30.000 6.000,30.000 ZM11.000,30.000 C10.447,30.000 10.000,30.448 10.000,31.000 C10.000,31.553 10.447,32.000 11.000,32.000 C11.553,32.000 12.000,31.553 12.000,31.000 C12.000,30.448 11.553,30.000 11.000,30.000 ZM16.000,30.000 C15.447,30.000 15.000,30.448 15.000,31.000 C15.000,31.553 15.447,32.000 16.000,32.000 C16.553,32.000 17.000,31.553 17.000,31.000 C17.000,30.448 16.553,30.000 16.000,30.000 ZM21.000,30.000 C20.448,30.000 20.000,30.448 20.000,31.000 C20.000,31.553 20.448,32.000 21.000,32.000 C21.553,32.000 22.000,31.553 22.000,31.000 C22.000,30.448 21.553,30.000 21.000,30.000 ZM26.000,30.000 C25.448,30.000 25.000,30.448 25.000,31.000 C25.000,31.553 25.448,32.000 26.000,32.000 C26.553,32.000 27.000,31.553 27.000,31.000 C27.000,30.448 26.553,30.000 26.000,30.000 ZM31.000,30.000 C30.448,30.000 30.000,30.448 30.000,31.000 C30.000,31.553 30.448,32.000 31.000,32.000 C31.553,32.000 32.000,31.553 32.000,31.000 C32.000,30.448 31.553,30.000 31.000,30.000 ZM1.000,27.000 C1.553,27.000 2.000,26.553 2.000,26.000 C2.000,25.448 1.553,25.000 1.000,25.000 C0.447,25.000 0.000,25.448 0.000,26.000 C0.000,26.553 0.447,27.000 1.000,27.000 ZM1.000,22.000 C1.553,22.000 2.000,21.553 2.000,21.000 C2.000,20.448 1.553,20.000 1.000,20.000 C0.447,20.000 0.000,20.448 0.000,21.000 C0.000,21.553 0.447,22.000 1.000,22.000 ZM1.000,17.000 C1.553,17.000 2.000,16.553 2.000,16.000 C2.000,15.448 1.553,15.000 1.000,15.000 C0.447,15.000 0.000,15.448 0.000,16.000 C0.000,16.553 0.447,17.000 1.000,17.000 ZM1.000,12.000 C1.553,12.000 2.000,11.554 2.000,11.000 C2.000,10.448 1.553,10.000 1.000,10.000 C0.447,10.000 0.000,10.448 0.000,11.000 C0.000,11.554 0.447,12.000 1.000,12.000 ZM1.000,7.000 C1.553,7.000 2.000,6.554 2.000,6.000 C2.000,5.448 1.553,5.000 1.000,5.000 C0.447,5.000 0.000,5.448 0.000,6.000 C0.000,6.554 0.447,7.000 1.000,7.000 ZM1.000,2.000 C1.553,2.000 2.000,1.554 2.000,1.000 C2.000,0.448 1.553,0.000 1.000,0.000 C0.447,0.000 0.000,0.448 0.000,1.000 C0.000,1.554 0.447,2.000 1.000,2.000 Z" class="cls-1"/>
</svg>
