<svg xmlns="http://www.w3.org/2000/svg" xmlns:xlink="http://www.w3.org/1999/xlink" preserveAspectRatio="xMidYMid" width="19" height="19" viewBox="0 0 19 19">
  <defs>
    <style>
      .cls-1 {
        stroke: #b8b8b8;
        stroke-width: 1px;
        fill: none;
        fill-rule: evenodd;
      }
    </style>
  </defs>
  <path d="M17.500,18.500 L1.500,18.500 L0.500,18.500 L0.500,17.500 L0.500,1.500 L0.500,0.500 L1.500,0.500 L17.500,0.500 L18.500,0.500 L18.500,1.500 L18.500,17.500 L18.500,18.500 L17.500,18.500 ZM17.500,1.500 L1.500,1.500 L1.500,17.500 L17.500,17.500 L17.500,1.500 ZM6.854,9.146 L7.000,9.293 L11.146,5.146 L11.854,5.854 L7.707,10.000 L11.854,14.146 L11.146,14.854 L7.000,10.707 L6.854,10.854 L6.146,10.146 L6.293,10.000 L6.146,9.854 L6.854,9.146 Z" class="cls-1"/>
</svg>
