<svg xmlns="http://www.w3.org/2000/svg" xmlns:xlink="http://www.w3.org/1999/xlink" preserveAspectRatio="xMidYMid" width="14" height="14" viewBox="0 0 14 14">
  <defs>
    <style>
      .cls-1 {
        fill: #4c525e;
        fill-rule: evenodd;
      }
    </style>
  </defs>
  <path d="M7.007,0.007 C3.142,0.007 0.007,3.142 0.007,7.007 C0.007,10.874 3.142,14.008 7.007,14.008 C10.873,14.008 14.008,10.874 14.008,7.007 C14.008,3.142 10.873,0.007 7.007,0.007 ZM8.465,10.857 C8.105,10.999 7.818,11.107 7.602,11.181 C7.388,11.256 7.138,11.294 6.855,11.294 C6.418,11.294 6.079,11.186 5.837,10.974 C5.595,10.761 5.475,10.492 5.475,10.164 C5.475,10.037 5.484,9.906 5.502,9.773 C5.520,9.641 5.549,9.491 5.589,9.324 L6.040,7.731 C6.079,7.577 6.114,7.432 6.141,7.297 C6.168,7.160 6.181,7.035 6.181,6.921 C6.181,6.719 6.139,6.577 6.056,6.497 C5.971,6.416 5.811,6.377 5.574,6.377 C5.457,6.377 5.338,6.394 5.215,6.431 C5.094,6.468 4.988,6.502 4.902,6.535 L5.021,6.044 C5.316,5.924 5.599,5.821 5.868,5.736 C6.138,5.649 6.393,5.606 6.633,5.606 C7.066,5.606 7.400,5.712 7.636,5.921 C7.870,6.130 7.988,6.402 7.988,6.736 C7.988,6.805 7.980,6.928 7.963,7.102 C7.947,7.277 7.917,7.436 7.873,7.583 L7.425,9.171 C7.388,9.299 7.355,9.444 7.326,9.607 C7.297,9.770 7.282,9.894 7.282,9.979 C7.282,10.189 7.329,10.333 7.424,10.410 C7.518,10.486 7.682,10.525 7.914,10.525 C8.024,10.525 8.146,10.505 8.285,10.467 C8.423,10.429 8.523,10.395 8.585,10.366 L8.465,10.857 ZM8.385,4.410 C8.177,4.604 7.924,4.701 7.630,4.701 C7.336,4.701 7.082,4.604 6.871,4.410 C6.661,4.216 6.555,3.979 6.555,3.703 C6.555,3.427 6.662,3.190 6.871,2.994 C7.082,2.797 7.336,2.699 7.630,2.699 C7.924,2.699 8.177,2.797 8.385,2.994 C8.594,3.190 8.700,3.427 8.700,3.703 C8.700,3.980 8.594,4.216 8.385,4.410 Z" class="cls-1"/>
</svg>
