<svg xmlns="http://www.w3.org/2000/svg" xmlns:xlink="http://www.w3.org/1999/xlink" preserveAspectRatio="xMidYMid" width="22" height="15" viewBox="0 0 22 15">
  <defs>
    <style>
      .cls-1 {
        fill: #fff;
        fill-rule: evenodd;
      }
    </style>
  </defs>
  <path d="M-0.000,-0.000 L-0.000,3.000 L3.000,3.000 L3.000,-0.000 L-0.000,-0.000 ZM5.000,-0.000 L5.000,3.000 L19.000,3.000 L19.000,-0.000 L5.000,-0.000 ZM-0.000,6.000 L-0.000,9.000 L3.000,9.000 L3.000,6.000 L-0.000,6.000 ZM5.000,6.000 L5.000,9.000 L15.000,9.000 L15.000,6.000 L5.000,6.000 ZM-0.000,12.000 L-0.000,15.000 L3.000,15.000 L3.000,12.000 L-0.000,12.000 ZM5.000,12.000 L5.000,15.000 L22.000,15.000 L22.000,12.000 L5.000,12.000 Z" class="cls-1"/>
</svg>
