<svg xmlns="http://www.w3.org/2000/svg" xmlns:xlink="http://www.w3.org/1999/xlink" preserveAspectRatio="xMidYMid" width="26.125" height="22.406" viewBox="0 0 26.125 22.406">
  <defs>
    <style>
      .cls-1 {
        fill: #fff;
        fill-rule: evenodd;
      }
    </style>
  </defs>
  <path d="M25.532,13.318 C24.697,14.195 23.563,14.064 23.563,14.064 C23.563,14.064 23.307,13.028 24.163,12.128 C25.022,11.229 26.100,11.224 26.100,11.224 C26.100,11.224 26.368,12.442 25.532,13.318 ZM23.145,11.408 C23.145,11.408 22.360,10.690 22.577,9.463 C22.793,8.237 23.687,7.630 23.687,7.630 C23.687,7.630 24.583,8.495 24.372,9.691 C24.160,10.886 23.145,11.408 23.145,11.408 ZM20.483,12.128 C20.299,10.929 21.215,10.086 21.215,10.086 C21.215,10.086 22.093,10.714 22.283,11.946 C22.469,13.177 21.669,13.876 21.669,13.876 C21.669,13.876 20.667,13.329 20.483,12.128 ZM17.705,14.582 L13.071,12.050 L13.071,12.035 L8.442,14.565 L9.112,9.072 L5.456,5.335 L10.697,4.630 L13.075,-0.001 L13.075,0.022 L15.449,4.648 L20.690,5.352 L17.034,9.088 L17.705,14.582 ZM5.663,12.111 C5.479,13.312 4.477,13.859 4.477,13.859 C4.477,13.859 3.676,13.160 3.864,11.927 C4.054,10.696 4.932,10.069 4.932,10.069 C4.932,10.069 5.848,10.912 5.663,12.111 ZM1.775,9.675 C1.564,8.479 2.459,7.615 2.459,7.615 C2.459,7.615 3.353,8.222 3.569,9.448 C3.787,10.674 3.002,11.393 3.002,11.393 C3.002,11.393 1.987,10.869 1.775,9.675 ZM2.584,14.048 C2.584,14.048 1.450,14.178 0.614,13.303 C-0.221,12.426 0.047,11.208 0.047,11.208 C0.047,11.208 1.125,11.212 1.984,12.113 C2.839,13.011 2.584,14.048 2.584,14.048 ZM2.477,14.728 C3.558,15.332 3.619,16.399 3.619,16.399 C3.619,16.399 2.574,16.860 1.518,16.271 C0.463,15.682 0.362,14.437 0.362,14.437 C0.362,14.437 1.393,14.124 2.477,14.728 ZM3.962,17.095 C5.149,17.443 5.444,18.469 5.444,18.469 C5.444,18.469 4.528,19.153 3.368,18.813 C2.209,18.474 1.835,17.284 1.835,17.284 C1.835,17.284 2.771,16.747 3.962,17.095 ZM5.658,19.086 C6.896,19.056 7.484,19.945 7.484,19.945 C7.484,19.945 6.816,20.876 5.609,20.904 C4.403,20.934 3.688,19.913 3.688,19.913 C3.688,19.913 4.420,19.117 5.658,19.086 ZM8.356,20.546 C9.581,20.368 10.270,21.179 10.270,21.179 C10.270,21.179 9.720,22.183 8.524,22.359 C7.328,22.533 6.499,21.604 6.499,21.604 C6.499,21.604 7.130,20.726 8.356,20.546 ZM5.984,16.883 C5.984,16.883 5.099,16.294 5.125,15.047 C5.152,13.801 5.941,13.065 5.941,13.065 C5.941,13.065 6.959,13.780 6.935,14.993 C6.908,16.207 5.984,16.883 5.984,16.883 ZM7.215,16.884 C7.125,15.640 7.843,14.833 7.843,14.833 C7.843,14.833 8.922,15.449 9.010,16.658 C9.097,17.869 8.241,18.629 8.241,18.629 C8.241,18.629 7.305,18.127 7.215,16.884 ZM9.593,18.763 C9.152,17.599 9.608,16.615 9.608,16.615 C9.608,16.615 10.819,16.893 11.249,18.028 C11.680,19.163 11.076,20.137 11.076,20.137 C11.076,20.137 10.036,19.926 9.593,18.763 ZM2.814,11.978 L3.406,12.002 C3.395,12.247 3.297,18.050 12.495,20.814 L12.326,21.383 C2.666,18.481 2.813,12.043 2.814,11.978 ZM15.070,20.154 C15.070,20.154 14.466,19.179 14.897,18.044 C15.328,16.911 16.537,16.631 16.537,16.631 C16.537,16.631 16.993,17.615 16.553,18.780 C16.110,19.943 15.070,20.154 15.070,20.154 ZM17.136,16.675 C17.225,15.465 18.303,14.848 18.303,14.848 C18.303,14.848 19.020,15.656 18.931,16.899 C18.841,18.143 17.905,18.645 17.905,18.645 C17.905,18.645 17.050,17.885 17.136,16.675 ZM19.211,15.011 C19.188,13.797 20.205,13.082 20.205,13.082 C20.205,13.082 20.994,13.820 21.021,15.064 C21.047,16.310 20.162,16.900 20.162,16.900 C20.162,16.900 19.238,16.223 19.211,15.011 ZM22.740,12.017 L23.332,11.994 C23.333,12.059 23.480,18.497 13.819,21.398 L13.650,20.830 C22.849,18.067 22.751,12.264 22.740,12.017 ZM17.790,20.563 C19.016,20.742 19.647,21.620 19.647,21.620 C19.647,21.620 18.818,22.548 17.622,22.374 C16.427,22.199 15.876,21.194 15.876,21.194 C15.876,21.194 16.564,20.384 17.790,20.563 ZM18.662,19.961 C18.662,19.961 19.250,19.073 20.488,19.103 C21.728,19.134 22.458,19.930 22.458,19.930 C22.458,19.930 21.743,20.951 20.537,20.921 C19.330,20.893 18.662,19.961 18.662,19.961 ZM20.702,18.487 C20.702,18.487 20.997,17.461 22.184,17.113 C23.374,16.764 24.312,17.301 24.312,17.301 C24.312,17.301 23.937,18.492 22.779,18.831 C21.619,19.170 20.702,18.487 20.702,18.487 ZM22.527,16.415 C22.527,16.415 22.588,15.349 23.669,14.744 C24.753,14.140 25.784,14.453 25.784,14.453 C25.784,14.453 25.683,15.697 24.628,16.287 C23.572,16.876 22.527,16.415 22.527,16.415 Z" class="cls-1"/>
</svg>
