<svg xmlns="http://www.w3.org/2000/svg" xmlns:xlink="http://www.w3.org/1999/xlink" preserveAspectRatio="xMidYMid" width="28" height="23" viewBox="0 0 28 23">
  <defs>
    <style>
      .cls-1 {
        fill: #fff;
        fill-rule: evenodd;
      }
    </style>
  </defs>
  <path d="M22.443,1.418 C22.461,0.550 22.429,0.001 22.429,0.001 L14.042,-0.005 L14.042,-0.005 L14.000,-0.005 L13.957,-0.005 L13.957,-0.005 L5.570,0.001 C5.570,0.001 5.539,0.550 5.557,1.418 L0.002,1.418 L0.002,2.344 C0.002,2.556 0.037,7.544 3.081,10.277 C4.351,11.417 5.935,11.990 7.803,11.990 C8.085,11.990 8.376,11.972 8.670,11.947 C9.731,13.416 10.956,14.445 12.335,14.958 L12.335,19.027 L8.288,19.027 L8.288,21.575 L6.951,21.575 L6.951,23.004 L13.957,23.004 L14.042,23.004 L21.049,23.004 L21.049,21.575 L19.711,21.575 L19.711,19.027 L15.664,19.027 L15.664,14.958 C17.043,14.445 18.268,13.416 19.329,11.947 C19.625,11.972 19.916,11.990 20.197,11.990 C22.065,11.990 23.649,11.417 24.918,10.277 C27.963,7.544 27.998,2.556 27.998,2.344 L27.998,1.418 L22.443,1.418 ZM4.303,8.895 C2.565,7.339 2.050,4.675 1.898,3.271 L5.662,3.271 C5.821,5.020 6.196,7.200 7.061,9.116 C7.219,9.468 7.386,9.800 7.556,10.126 C6.259,10.076 5.167,9.667 4.303,8.895 ZM23.696,8.895 C22.833,9.668 21.741,10.076 20.445,10.126 C20.615,9.801 20.782,9.468 20.940,9.116 C21.805,7.200 22.179,5.020 22.338,3.271 L26.102,3.271 C25.950,4.674 25.435,7.338 23.696,8.895 Z" class="cls-1"/>
</svg>
