<svg xmlns="http://www.w3.org/2000/svg" xmlns:xlink="http://www.w3.org/1999/xlink" preserveAspectRatio="xMidYMid" width="36.969" height="27" viewBox="0 0 36.969 27">
  <defs>
    <style>
      .cls-1 {
        fill: #f0f0f0;
        fill-rule: evenodd;
      }
    </style>
  </defs>
  <path d="M36.216,11.755 C34.402,3.581 31.843,1.566 30.285,0.758 C27.789,-0.536 24.897,0.217 23.937,0.705 C22.847,1.257 22.112,2.307 21.004,2.763 C19.724,3.287 17.983,3.430 16.674,2.796 C15.631,2.290 14.710,1.210 13.446,0.732 C11.844,0.124 9.175,-0.728 6.533,1.134 C5.908,1.574 1.453,5.245 0.115,16.713 C-0.710,23.784 3.234,26.058 3.089,25.956 C4.104,26.670 6.376,27.879 9.455,25.986 C11.513,24.722 13.183,22.224 13.183,22.224 C13.183,22.224 13.927,20.836 14.915,20.246 C15.615,19.827 16.661,20.145 16.661,20.145 L20.364,20.145 C20.364,20.145 21.539,20.000 22.364,20.358 C23.165,20.702 23.618,21.551 23.618,21.551 C23.618,21.551 26.058,24.650 28.397,26.230 C29.393,26.901 33.394,27.674 35.461,25.193 C36.810,23.570 37.731,18.579 36.216,11.755 ZM16.437,11.031 C16.437,11.652 15.935,12.155 15.316,12.155 L12.511,12.155 L12.511,14.969 C12.511,15.591 12.009,16.095 11.389,16.095 L10.548,16.095 C9.929,16.095 9.427,15.592 9.427,14.969 L9.427,12.155 L6.621,12.155 C6.001,12.155 5.499,11.653 5.499,11.031 L5.499,10.188 C5.499,9.565 6.001,9.062 6.621,9.062 L9.426,9.062 L9.426,6.251 C9.426,5.630 9.928,5.125 10.547,5.125 L11.388,5.125 C12.008,5.125 12.510,5.629 12.510,6.251 L12.510,9.063 L15.315,9.063 C15.934,9.063 16.436,9.565 16.436,10.189 L16.436,11.031 L16.437,11.031 ZM24.338,14.968 C23.176,14.968 22.234,14.025 22.234,12.858 C22.234,11.694 23.176,10.749 24.338,10.749 C25.499,10.749 26.441,11.693 26.441,12.858 C26.442,14.025 25.499,14.968 24.338,14.968 ZM28.194,10.282 C27.045,10.282 26.114,9.348 26.114,8.195 C26.114,7.046 27.045,6.112 28.194,6.112 C29.343,6.112 30.274,7.046 30.274,8.195 C30.274,9.348 29.343,10.282 28.194,10.282 Z" class="cls-1"/>
</svg>
