<svg xmlns="http://www.w3.org/2000/svg" xmlns:xlink="http://www.w3.org/1999/xlink" preserveAspectRatio="xMidYMid" width="4.03" height="22.219" viewBox="0 0 4.03 22.219">
  <defs>
    <style>
      .cls-1 {
        fill: #8791a0;
        fill-rule: evenodd;
      }
    </style>
  </defs>
  <path d="M4.029,2.016 C4.029,0.900 3.124,-0.005 2.009,-0.005 C0.893,-0.005 -0.011,0.900 -0.011,2.016 C-0.011,3.132 0.893,4.037 2.009,4.037 C3.124,4.037 4.029,3.132 4.029,2.016 ZM4.029,11.448 C4.029,10.332 3.124,9.427 2.009,9.427 C0.893,9.427 -0.011,10.332 -0.011,11.448 C-0.011,12.565 0.893,13.470 2.009,13.470 C3.124,13.470 4.029,12.565 4.029,11.448 ZM4.029,20.206 C4.029,19.090 3.124,18.186 2.009,18.186 C0.893,18.186 -0.011,19.090 -0.011,20.206 C-0.011,21.323 0.893,22.228 2.009,22.228 C3.124,22.228 4.029,21.323 4.029,20.206 Z" class="cls-1"/>
</svg>
