<svg xmlns="http://www.w3.org/2000/svg" xmlns:xlink="http://www.w3.org/1999/xlink" preserveAspectRatio="xMidYMid" width="19" height="21.938" viewBox="0 0 19 21.938">
  <defs>
    <style>
      .cls-1 {
        fill: #fff;
        fill-rule: evenodd;
      }
    </style>
  </defs>
  <path d="M18.777,19.474 C18.730,19.592 18.642,19.692 18.536,19.760 C18.397,19.847 15.071,21.931 9.507,21.931 C3.942,21.931 0.617,19.851 0.478,19.760 C0.367,19.692 0.284,19.593 0.237,19.474 C-0.008,18.866 -0.003,17.654 0.001,17.418 C0.001,17.413 0.001,17.409 0.001,17.404 C0.006,17.368 0.006,17.332 0.006,17.291 C0.034,16.396 0.094,14.294 2.101,13.618 C2.115,13.613 2.129,13.609 2.148,13.604 C4.243,13.082 5.968,11.902 5.987,11.888 C6.269,11.693 6.658,11.761 6.856,12.038 C7.055,12.315 6.986,12.696 6.704,12.892 C6.625,12.942 4.784,14.204 2.481,14.785 C1.403,15.162 1.283,16.292 1.250,17.327 C1.250,17.368 1.246,17.404 1.246,17.441 C1.236,17.849 1.269,18.480 1.343,18.843 C2.097,19.261 5.053,20.709 9.502,20.709 C13.971,20.709 16.908,19.266 17.657,18.848 C17.731,18.485 17.759,17.854 17.754,17.445 C17.750,17.409 17.750,17.373 17.750,17.332 C17.717,16.297 17.597,15.166 16.519,14.789 C14.216,14.208 12.375,12.951 12.296,12.896 C12.014,12.701 11.945,12.320 12.143,12.043 C12.342,11.766 12.731,11.698 13.013,11.893 C13.032,11.906 14.766,13.087 16.852,13.609 C16.866,13.613 16.885,13.618 16.899,13.623 C18.906,14.294 18.966,16.396 18.994,17.295 C18.994,17.336 18.999,17.373 18.999,17.409 C18.999,17.413 18.999,17.418 18.999,17.422 C19.003,17.659 19.008,18.871 18.777,19.474 ZM9.567,11.820 C9.553,11.820 9.535,11.820 9.521,11.820 C9.512,11.820 9.502,11.820 9.493,11.820 C9.465,11.820 9.442,11.820 9.419,11.820 C8.064,11.798 6.967,11.330 6.163,10.436 C4.382,8.465 4.678,5.088 4.710,4.765 C4.826,2.327 6.010,1.170 6.981,0.629 C7.948,0.089 8.956,0.007 9.470,0.007 L9.498,0.007 C9.502,0.007 9.512,0.007 9.516,0.007 L9.549,0.007 C10.483,0.026 11.320,0.244 12.037,0.648 C12.999,1.188 14.165,2.345 14.281,4.765 C14.313,5.088 14.609,8.465 12.828,10.436 C12.019,11.330 10.922,11.798 9.567,11.820 ZM13.041,4.879 C13.036,4.870 13.036,4.856 13.036,4.842 C12.893,1.764 10.770,1.265 9.521,1.238 C9.507,1.238 9.493,1.238 9.484,1.238 L9.465,1.238 C8.457,1.238 6.103,1.587 5.950,4.842 C5.950,4.852 5.945,4.865 5.945,4.879 C5.941,4.906 5.626,8.007 7.092,9.623 C7.671,10.268 8.452,10.585 9.470,10.594 C9.479,10.594 9.484,10.594 9.493,10.594 C9.502,10.594 9.507,10.594 9.516,10.594 C10.538,10.585 11.316,10.268 11.898,9.623 C13.369,7.998 13.045,4.911 13.041,4.879 Z" class="cls-1"/>
</svg>
