<svg xmlns="http://www.w3.org/2000/svg" xmlns:xlink="http://www.w3.org/1999/xlink" preserveAspectRatio="xMidYMid" width="81.44" height="47.781" viewBox="0 0 81.44 47.781">
  <defs>
    <style>
      .cls-1 {
        fill: #22beca;
        fill-rule: evenodd;
      }
    </style>
  </defs>
  <path d="M79.616,11.691 L45.296,46.011 C44.092,47.215 42.493,47.800 40.853,47.795 C40.809,47.797 40.765,47.795 40.720,47.796 C40.675,47.795 40.631,47.797 40.587,47.795 C38.947,47.800 37.348,47.215 36.144,46.011 L1.824,11.691 C-0.703,9.164 -0.536,4.899 2.198,2.165 C4.932,-0.568 9.196,-0.736 11.724,1.792 L40.720,30.788 L69.716,1.792 C72.244,-0.736 76.508,-0.568 79.242,2.165 C81.976,4.899 82.143,9.164 79.616,11.691 Z" class="cls-1"/>
</svg>
