<svg xmlns="http://www.w3.org/2000/svg" xmlns:xlink="http://www.w3.org/1999/xlink" preserveAspectRatio="xMidYMid" width="129.688" height="127.375" viewBox="0 0 129.688 127.375">
  <defs>
    <style>
      .cls-1 {
        fill: #8791a0;
        fill-rule: evenodd;
      }
    </style>
  </defs>
  <path d="M128.818,76.667 C127.789,77.699 126.564,78.216 125.152,78.216 L106.902,78.216 C106.902,87.503 105.084,95.379 101.443,101.843 L118.390,118.870 C119.420,119.900 119.937,121.124 119.937,122.536 C119.937,123.948 119.420,125.171 118.390,126.203 C117.412,127.234 116.190,127.751 114.723,127.751 C113.256,127.751 112.037,127.234 111.057,126.203 L94.924,110.152 C94.653,110.424 94.246,110.775 93.701,111.212 C93.158,111.646 92.017,112.421 90.279,113.534 C88.543,114.648 86.776,115.639 84.984,116.508 C83.191,117.377 80.965,118.165 78.303,118.870 C75.641,119.577 73.008,119.930 70.400,119.930 L70.400,46.930 L59.971,46.930 L59.971,119.930 C57.202,119.930 54.445,119.562 51.701,118.829 C48.959,118.096 46.597,117.200 44.613,116.141 C42.631,115.080 40.839,114.021 39.236,112.962 C37.633,111.902 36.452,111.021 35.692,110.314 L34.470,109.173 L19.560,126.038 C18.473,127.180 17.170,127.749 15.649,127.749 C14.346,127.749 13.179,127.314 12.146,126.445 C11.114,125.466 10.557,124.257 10.476,122.818 C10.394,121.381 10.815,120.118 11.739,119.031 L28.196,100.537 C25.046,94.346 23.470,86.902 23.470,78.215 L5.220,78.215 C3.808,78.215 2.586,77.697 1.555,76.665 C0.522,75.635 0.006,74.411 0.006,72.999 C0.006,71.588 0.522,70.364 1.555,69.333 C2.586,68.301 3.808,67.784 5.220,67.784 L23.470,67.784 L23.470,43.831 L9.375,29.736 C8.343,28.704 7.827,27.482 7.827,26.069 C7.827,24.657 8.343,23.435 9.375,22.403 C10.407,21.371 11.629,20.855 13.042,20.855 C14.454,20.855 15.676,21.371 16.708,22.403 L30.803,36.498 L99.567,36.498 L113.662,22.403 C114.694,21.371 115.916,20.855 117.328,20.855 C118.740,20.855 119.963,21.371 120.994,22.403 C122.026,23.435 122.543,24.657 122.543,26.069 C122.543,27.482 122.026,28.704 120.994,29.736 L106.899,43.831 L106.899,67.784 L125.149,67.784 C126.561,67.784 127.785,68.301 128.815,69.333 C129.849,70.365 130.369,71.589 130.369,73.001 C130.369,74.413 129.850,75.637 128.818,76.667 ZM46.733,7.617 C51.812,2.539 57.962,-0.001 65.187,-0.001 C72.412,-0.001 78.562,2.539 83.640,7.617 C88.720,12.696 91.258,18.848 91.258,26.071 L39.117,26.071 C39.117,18.847 41.655,12.696 46.733,7.617 Z" class="cls-1"/>
</svg>
