<svg xmlns="http://www.w3.org/2000/svg" xmlns:xlink="http://www.w3.org/1999/xlink" preserveAspectRatio="xMidYMid" width="36" height="17.688" viewBox="0 0 36 17.688">
  <defs>
    <style>
      .cls-1 {
        fill: #8791a0;
        fill-rule: evenodd;
      }
    </style>
  </defs>
  <path d="M35.052,9.650 L0.947,9.650 C0.431,9.650 0.003,9.290 0.003,8.846 C0.003,8.399 0.425,8.042 0.947,8.042 L35.052,8.042 C35.568,8.042 35.996,8.402 35.996,8.846 C35.996,9.294 35.574,9.650 35.052,9.650 ZM35.052,1.606 L0.947,1.606 C0.431,1.606 0.003,1.246 0.003,0.802 C0.003,0.354 0.425,-0.003 0.947,-0.003 L35.052,-0.003 C35.568,-0.003 35.996,0.357 35.996,0.802 C35.996,1.249 35.574,1.606 35.052,1.606 ZM0.947,16.086 L35.052,16.086 C35.568,16.086 35.996,16.447 35.996,16.891 C35.996,17.338 35.574,17.695 35.052,17.695 L0.947,17.695 C0.431,17.695 0.003,17.335 0.003,16.891 C0.003,16.444 0.425,16.086 0.947,16.086 Z" class="cls-1"/>
</svg>
