<svg xmlns="http://www.w3.org/2000/svg" xmlns:xlink="http://www.w3.org/1999/xlink" preserveAspectRatio="xMidYMid" width="22.75" height="22.719" viewBox="0 0 22.75 22.719">
  <defs>
    <style>
      .cls-1 {
        fill: #00b4ff;
        fill-rule: evenodd;
      }
    </style>
  </defs>
  <path d="M21.120,4.935 L15.308,10.265 L14.173,9.029 L20.017,3.350 C20.020,3.347 20.024,3.343 20.026,3.341 C20.198,3.165 20.194,2.882 20.018,2.711 C19.841,2.539 19.559,2.543 19.387,2.719 L13.722,8.539 L12.582,7.298 L17.800,1.618 C18.318,1.054 19.003,0.670 19.755,0.523 L22.408,0.003 C22.500,-0.015 22.594,0.014 22.660,0.079 C22.726,0.145 22.755,0.239 22.737,0.331 L22.216,2.981 C22.068,3.733 21.684,4.417 21.120,4.935 ZM19.245,14.550 C19.601,14.417 19.968,14.308 20.348,14.229 C20.827,14.127 21.302,14.438 21.402,14.921 C21.503,15.403 21.221,15.829 20.710,15.974 C20.199,16.119 19.261,16.454 18.694,16.835 L19.462,17.431 L22.028,19.421 C22.446,19.745 22.704,20.233 22.738,20.761 C22.771,21.288 22.575,21.805 22.201,22.179 C21.827,22.553 21.310,22.748 20.782,22.715 C20.254,22.682 19.765,22.424 19.441,22.006 L17.449,19.442 L16.911,18.750 C16.625,19.255 16.409,19.805 16.287,20.393 C16.264,20.503 16.221,20.602 16.164,20.691 C16.002,20.944 15.721,21.104 15.414,21.104 C15.354,21.104 15.294,21.098 15.233,21.085 C14.750,20.985 14.440,20.513 14.540,20.032 C14.587,19.806 14.662,19.591 14.728,19.374 C14.914,18.764 15.171,18.190 15.496,17.659 L1.622,4.935 C1.058,4.417 0.674,3.733 0.526,2.981 L0.005,0.331 C-0.012,0.240 0.016,0.145 0.082,0.079 C0.135,0.027 0.207,-0.002 0.280,-0.002 C0.298,-0.002 0.316,-0.001 0.334,0.003 L2.987,0.523 C3.739,0.670 4.424,1.054 4.942,1.618 L17.616,15.413 C18.120,15.065 18.661,14.768 19.245,14.550 ZM12.453,12.065 L3.355,2.719 C3.183,2.543 2.901,2.539 2.724,2.711 C2.548,2.882 2.544,3.165 2.716,3.341 C2.718,3.343 2.722,3.347 2.725,3.350 L12.078,12.439 C12.184,12.541 12.351,12.539 12.453,12.434 C12.553,12.331 12.552,12.167 12.453,12.065 ZM0.714,19.421 L4.048,16.835 C3.447,16.431 2.770,16.127 2.032,15.974 C1.550,15.874 1.240,15.403 1.340,14.921 C1.439,14.438 1.911,14.128 2.394,14.229 C3.397,14.437 4.316,14.853 5.126,15.413 L7.542,12.783 L10.052,15.085 L7.246,17.659 C7.687,18.380 8.024,19.173 8.202,20.032 C8.302,20.513 7.992,20.985 7.509,21.085 C7.448,21.098 7.388,21.104 7.328,21.104 C6.913,21.104 6.542,20.814 6.455,20.393 C6.333,19.805 6.117,19.255 5.831,18.750 L3.301,22.006 C2.977,22.424 2.488,22.682 1.960,22.715 C1.921,22.717 1.883,22.718 1.845,22.718 C1.357,22.718 0.888,22.525 0.541,22.179 C0.167,21.805 -0.029,21.288 0.004,20.761 C0.038,20.233 0.296,19.745 0.714,19.421 Z" class="cls-1"/>
</svg>
