<svg xmlns="http://www.w3.org/2000/svg" xmlns:xlink="http://www.w3.org/1999/xlink" preserveAspectRatio="xMidYMid" width="16" height="15.969" viewBox="0 0 16 15.969">
  <defs>
    <style>
      .cls-1 {
        fill: #fff;
        fill-rule: evenodd;
      }
    </style>
  </defs>
  <path d="M8.000,1.004 C11.854,1.004 14.990,4.140 14.990,7.994 C14.990,11.848 11.854,14.984 8.000,14.984 C4.146,14.984 1.010,11.848 1.010,7.994 C1.010,4.140 4.146,1.004 8.000,1.004 M8.000,0.006 C3.588,0.006 0.011,3.583 0.011,7.994 C0.011,12.406 3.588,15.983 8.000,15.983 C12.412,15.983 15.989,12.406 15.989,7.994 C15.989,3.583 12.412,0.006 8.000,0.006 L8.000,0.006 ZM8.000,2.003 C4.690,2.003 2.008,4.685 2.008,7.994 C2.008,11.303 4.690,13.986 8.000,13.986 C11.309,13.986 13.991,11.303 13.991,7.994 C13.991,4.685 11.309,2.003 8.000,2.003 ZM10.179,11.079 C9.786,11.520 9.218,11.779 8.476,11.857 L8.476,12.987 L7.530,12.987 L7.530,11.863 C6.292,11.736 5.527,11.016 5.231,9.706 L6.694,9.324 C6.830,10.148 7.278,10.560 8.040,10.560 C8.396,10.560 8.659,10.472 8.827,10.296 C8.995,10.119 9.079,9.907 9.079,9.657 C9.079,9.398 8.995,9.202 8.827,9.070 C8.659,8.936 8.286,8.768 7.707,8.563 C7.188,8.382 6.781,8.205 6.488,8.027 C6.196,7.852 5.958,7.605 5.776,7.288 C5.593,6.970 5.502,6.600 5.502,6.178 C5.502,5.625 5.665,5.127 5.991,4.684 C6.317,4.243 6.830,3.973 7.530,3.874 L7.530,3.001 L8.476,3.001 L8.476,3.874 C9.533,4.001 10.218,4.599 10.529,5.668 L9.226,6.203 C8.971,5.469 8.579,5.103 8.047,5.103 C7.780,5.103 7.565,5.185 7.404,5.349 C7.242,5.512 7.161,5.711 7.161,5.944 C7.161,6.182 7.239,6.365 7.395,6.493 C7.550,6.619 7.885,6.776 8.396,6.964 C8.958,7.169 9.398,7.363 9.717,7.546 C10.037,7.728 10.292,7.981 10.483,8.301 C10.673,8.623 10.768,8.999 10.768,9.429 C10.768,10.089 10.572,10.639 10.179,11.079 Z" class="cls-1"/>
</svg>
