<svg xmlns="http://www.w3.org/2000/svg" xmlns:xlink="http://www.w3.org/1999/xlink" preserveAspectRatio="xMidYMid" width="15" height="15" viewBox="0 0 15 15">
  <defs>
    <style>
      .cls-1 {
        fill: #fdfdfd;
        fill-rule: evenodd;
      }
    </style>
  </defs>
  <path d="M14.588,14.588 C14.040,15.137 13.149,15.137 12.599,14.588 L9.158,11.146 C9.955,10.634 10.634,9.955 11.146,9.158 L14.588,12.599 C15.137,13.149 15.137,14.040 14.588,14.588 ZM5.625,11.250 C2.519,11.250 0.000,8.731 0.000,5.625 C0.000,2.519 2.519,0.000 5.625,0.000 C8.731,0.000 11.250,2.519 11.250,5.625 C11.250,8.731 8.731,11.250 5.625,11.250 ZM5.625,1.406 C3.299,1.406 1.406,3.299 1.406,5.625 C1.406,7.951 3.299,9.844 5.625,9.844 C7.951,9.844 9.844,7.951 9.844,5.625 C9.844,3.299 7.951,1.406 5.625,1.406 ZM3.281,5.625 L2.344,5.625 C2.344,3.816 3.816,2.344 5.625,2.344 L5.625,3.281 C4.333,3.281 3.281,4.333 3.281,5.625 Z" class="cls-1"/>
</svg>
