<svg xmlns="http://www.w3.org/2000/svg" xmlns:xlink="http://www.w3.org/1999/xlink" preserveAspectRatio="xMidYMid" width="15.16" height="15.156" viewBox="0 0 15.16 15.156">
  <defs>
    <style>
      .cls-1 {
        fill: #fff;
        fill-rule: evenodd;
      }
    </style>
  </defs>
  <path d="M0.001,4.126 L4.137,4.126 L4.137,-0.010 L0.001,-0.010 L0.001,4.126 ZM5.515,4.126 L9.651,4.126 L9.651,-0.010 L5.515,-0.010 L5.515,4.126 ZM11.029,-0.010 L11.029,4.126 L15.165,4.126 L15.165,-0.010 L11.029,-0.010 ZM0.001,9.640 L4.137,9.640 L4.137,5.505 L0.001,5.505 L0.001,9.640 ZM5.515,9.640 L9.651,9.640 L9.651,5.505 L5.515,5.505 L5.515,9.640 ZM11.029,9.640 L15.165,9.640 L15.165,5.505 L11.029,5.505 L11.029,9.640 ZM0.001,15.155 L4.137,15.155 L4.137,11.019 L0.001,11.019 L0.001,15.155 ZM5.515,15.155 L9.651,15.155 L9.651,11.019 L5.515,11.019 L5.515,15.155 ZM11.029,15.155 L15.165,15.155 L15.165,11.019 L11.029,11.019 L11.029,15.155 Z" class="cls-1"/>
</svg>
