<svg xmlns="http://www.w3.org/2000/svg" xmlns:xlink="http://www.w3.org/1999/xlink" preserveAspectRatio="xMidYMid" width="63.5" height="94" viewBox="0 0 63.5 94">
  <defs>
    <style>
      .cls-1 {
        fill: #22beca;
        fill-rule: evenodd;
      }
    </style>
  </defs>
  <path d="M52.000,70.000 C47.062,70.000 42.822,72.986 40.980,77.250 L24.500,77.250 C17.440,77.250 16.783,71.287 16.750,69.500 L16.750,50.158 C18.904,51.154 21.468,51.750 24.500,51.750 L40.980,51.750 C42.820,56.014 47.062,59.000 52.000,59.000 C58.627,59.000 64.000,53.629 64.000,47.000 C64.000,40.375 58.627,35.000 52.000,35.000 C47.062,35.000 42.822,37.986 40.980,42.250 L24.500,42.250 C17.440,42.250 16.783,36.287 16.750,34.500 L16.750,23.020 C21.014,21.180 24.000,16.939 24.000,12.000 C24.000,5.375 18.627,-0.000 12.000,-0.000 C5.373,-0.000 -0.000,5.375 -0.000,12.000 C-0.000,16.939 2.986,21.178 7.250,23.020 L7.250,69.500 C7.250,76.434 11.844,86.750 24.500,86.750 L40.980,86.750 C42.820,91.014 47.062,94.000 52.000,94.000 C58.627,94.000 64.000,88.629 64.000,82.000 C64.000,75.375 58.627,70.000 52.000,70.000 ZM52.000,40.078 C55.823,40.078 58.923,43.178 58.923,47.000 C58.923,50.824 55.823,53.924 52.000,53.924 C48.178,53.924 45.077,50.824 45.077,47.000 C45.077,43.178 48.178,40.078 52.000,40.078 ZM5.077,12.000 C5.077,8.178 8.178,5.078 12.000,5.078 C15.823,5.078 18.923,8.178 18.923,12.000 C18.923,15.824 15.823,18.924 12.000,18.924 C8.178,18.924 5.077,15.824 5.077,12.000 ZM52.000,88.924 C48.178,88.924 45.077,85.824 45.077,82.000 C45.077,78.178 48.178,75.078 52.000,75.078 C55.823,75.078 58.923,78.178 58.923,82.000 C58.923,85.824 55.823,88.924 52.000,88.924 Z" class="cls-1"/>
</svg>
