<svg xmlns="http://www.w3.org/2000/svg" xmlns:xlink="http://www.w3.org/1999/xlink" preserveAspectRatio="xMidYMid" width="836.438" height="910" viewBox="0 0 836.438 910">
  <defs>
    <style>
      .cls-1 {
        fill: #22beca;
        fill-rule: evenodd;
      }
    </style>
  </defs>
  <path d="M794.584,475.848 C766.937,562.706 727.010,640.533 675.911,707.170 C611.748,790.847 529.908,856.803 432.664,903.210 L418.438,910.000 L404.211,903.209 C306.967,856.802 225.127,790.845 160.964,707.169 C109.866,640.531 69.939,562.705 42.292,475.847 C-4.562,328.653 -0.000,207.097 0.217,201.995 L1.429,173.494 L29.827,170.580 C138.904,159.385 232.677,118.709 292.136,86.557 C357.259,51.343 396.735,18.305 397.127,17.975 L418.459,-0.000 L439.779,18.001 C440.141,18.306 479.617,51.343 544.741,86.558 C604.199,118.710 697.973,159.386 807.050,170.581 L835.447,173.495 L836.659,201.996 C836.876,207.099 841.437,328.655 794.584,475.848 ZM638.600,199.884 C595.684,185.052 552.970,166.143 511.645,143.680 C469.714,120.890 437.806,99.120 418.437,84.887 C399.067,99.121 367.160,120.890 325.229,143.680 C283.905,166.142 241.190,185.052 198.274,199.884 C154.373,215.055 110.143,225.979 66.391,232.470 C67.802,274.851 74.777,361.160 105.877,457.937 C131.323,537.117 167.755,607.816 214.166,668.073 C268.650,738.810 337.312,795.469 418.438,836.666 C499.958,795.269 568.889,738.262 623.502,667.040 C669.946,606.473 706.337,535.418 731.664,455.849 C762.323,359.533 769.161,274.440 770.520,232.475 C726.757,225.983 682.513,215.060 638.600,199.884 ZM235.129,470.389 L258.473,447.061 L258.473,447.060 L281.816,423.733 L293.646,435.556 L380.648,522.497 L552.314,350.949 L598.376,304.920 L645.063,351.575 L380.648,615.806 L235.129,470.389 Z" class="cls-1"/>
</svg>
