<svg xmlns="http://www.w3.org/2000/svg" xmlns:xlink="http://www.w3.org/1999/xlink" preserveAspectRatio="xMidYMid" width="612" height="468" viewBox="0 0 612 468">
  <defs>
    <style>
      .cls-1 {
        fill: #22beca;
        fill-rule: evenodd;
      }
    </style>
  </defs>
  <path d="M587.631,401.144 L545.062,401.144 C539.782,401.144 535.500,396.866 535.500,391.590 C535.500,386.314 539.782,382.036 545.062,382.036 L587.631,382.036 C590.632,382.036 592.875,380.241 592.875,378.637 L592.875,366.407 C592.875,352.239 584.152,335.453 567.477,330.623 L532.655,323.345 L514.672,349.264 C512.814,351.941 509.834,353.376 506.804,353.376 C504.925,353.376 503.027,352.823 501.365,351.673 C497.025,348.667 495.946,342.715 498.954,338.379 L516.866,312.565 L511.577,304.552 L474.284,332.370 C470.054,335.527 464.062,334.659 460.902,330.430 C457.741,326.203 458.610,320.216 462.843,317.060 L503.774,286.529 C506.787,284.157 510.674,283.067 514.491,283.528 C518.393,284.000 521.983,286.074 524.342,289.216 C524.456,289.371 524.568,289.528 524.674,289.688 L534.222,304.154 L571.726,311.992 C571.935,312.036 572.143,312.086 572.349,312.143 C598.379,319.429 612.000,344.958 612.000,366.407 L612.000,378.637 C612.000,391.048 601.068,401.144 587.631,401.144 ZM535.302,198.671 L535.302,208.997 C535.302,232.207 527.396,253.990 513.041,270.333 C498.473,286.919 479.015,296.054 458.255,296.054 C442.691,296.054 427.707,290.865 414.920,281.046 C410.733,277.830 409.949,271.833 413.167,267.649 C416.385,263.466 422.389,262.681 426.576,265.896 C435.990,273.125 446.944,276.946 458.255,276.946 C490.194,276.946 516.178,246.465 516.178,208.997 L516.178,203.381 C516.178,187.870 511.192,174.362 508.927,169.025 C492.816,159.893 473.088,154.547 448.721,152.721 C443.455,152.327 439.506,147.742 439.901,142.480 C440.297,137.219 444.881,133.269 450.152,133.668 C478.719,135.808 501.910,142.451 521.046,153.966 C521.058,153.972 521.069,153.979 521.080,153.985 C521.163,154.035 521.249,154.082 521.332,154.132 C521.406,154.176 521.471,154.229 521.543,154.275 C521.700,154.375 521.855,154.478 522.006,154.588 C522.025,154.602 522.045,154.614 522.065,154.629 C523.750,138.248 525.235,117.903 525.568,95.280 C516.120,94.673 505.241,92.931 493.883,91.095 C478.849,88.665 463.305,86.151 449.246,85.870 C443.967,85.765 439.771,81.403 439.875,76.128 C439.981,70.853 444.313,66.640 449.627,66.768 C465.031,67.075 481.981,69.815 496.936,72.232 C511.572,74.598 525.397,76.827 534.651,76.347 C534.834,76.337 535.015,76.319 535.200,76.319 C535.281,76.319 535.360,76.329 535.440,76.331 C540.490,76.294 544.744,80.213 545.045,85.311 C545.104,86.336 544.997,87.331 544.752,88.273 C544.540,147.055 536.645,191.530 535.302,198.671 ZM420.825,191.135 C420.825,224.377 408.749,258.019 387.692,283.437 C365.534,310.184 336.568,324.914 306.128,324.914 C275.684,324.914 246.683,310.175 224.466,283.414 C203.341,257.965 191.224,224.310 191.224,191.076 L191.222,191.076 L191.222,175.571 C189.155,166.793 176.456,111.674 176.456,81.848 C176.456,63.638 182.108,46.915 192.372,34.760 C203.484,21.602 219.599,14.356 237.750,14.356 C238.045,14.356 238.336,14.374 238.624,14.400 C270.964,-8.001 313.249,0.471 350.677,7.979 C373.778,12.613 395.596,16.991 413.381,14.453 C414.130,14.346 414.870,14.339 415.592,14.404 C419.962,13.981 424.190,16.619 425.599,20.962 C428.253,29.138 431.095,47.178 431.113,73.288 C431.126,93.511 429.341,125.217 420.825,161.855 L420.825,191.135 ZM210.349,191.077 C210.349,219.930 220.859,249.140 239.187,271.218 C257.703,293.523 281.477,305.808 306.128,305.808 C330.766,305.808 354.501,293.536 372.959,271.255 C391.225,249.206 401.700,220.004 401.700,191.136 L401.700,162.712 L388.885,132.544 C375.818,126.434 318.257,102.709 232.259,112.526 C226.231,123.866 210.349,155.989 210.349,179.619 L210.349,191.077 ZM409.078,34.085 C406.744,34.238 404.386,34.310 402.003,34.310 C384.790,34.310 366.272,30.596 346.914,26.712 C310.741,19.454 273.336,11.951 247.552,31.517 C245.243,33.267 242.399,33.804 239.771,33.245 C239.120,33.386 238.444,33.463 237.751,33.463 C216.760,33.463 195.582,48.424 195.581,81.846 C195.581,95.342 198.577,115.240 201.846,132.933 C209.049,114.368 217.370,99.851 217.982,98.793 C219.667,95.879 222.658,94.195 225.789,94.036 C332.548,80.647 398.145,115.664 400.892,117.165 C402.781,118.198 404.264,119.835 405.106,121.815 L407.806,128.171 C414.287,85.092 411.960,50.264 409.078,34.085 ZM162.577,162.303 C162.113,162.303 161.644,162.269 161.171,162.200 L159.465,161.949 C144.414,159.728 125.985,157.024 105.346,158.851 C102.071,168.293 95.821,188.282 95.821,203.381 L95.821,208.997 C95.821,246.464 121.805,276.946 153.743,276.946 C165.055,276.946 176.010,273.125 185.423,265.896 C189.612,262.680 195.613,263.466 198.832,267.649 C202.051,271.833 201.265,277.831 197.078,281.046 C184.292,290.864 169.308,296.054 153.743,296.054 C132.984,296.054 113.527,286.919 98.957,270.333 C84.603,253.991 76.697,232.208 76.697,208.997 L76.697,198.825 C75.176,191.983 67.236,155.314 67.236,135.194 C67.236,106.477 83.123,86.386 105.907,86.202 C122.230,75.339 140.988,75.678 153.948,76.957 C159.204,77.475 163.043,82.153 162.524,87.403 C162.004,92.654 157.319,96.494 152.068,95.971 C135.178,94.305 123.663,96.581 114.738,103.355 C113.010,104.667 110.978,105.301 108.961,105.301 C108.501,105.301 108.044,105.257 107.591,105.192 C107.142,105.256 106.686,105.300 106.219,105.300 C96.334,105.300 86.360,114.544 86.360,135.193 C86.360,139.776 86.861,145.498 87.625,151.573 C88.608,148.784 89.298,146.999 89.464,146.572 C89.473,146.551 89.481,146.529 89.489,146.507 C89.491,146.506 89.493,146.500 89.493,146.498 C89.503,146.476 89.513,146.454 89.523,146.432 C89.629,146.166 89.746,145.905 89.875,145.651 C89.944,145.517 90.021,145.393 90.094,145.264 C90.172,145.126 90.247,144.985 90.332,144.853 C90.435,144.690 90.548,144.537 90.660,144.383 C90.728,144.290 90.791,144.194 90.863,144.103 C90.985,143.946 91.116,143.801 91.247,143.653 C91.322,143.569 91.394,143.482 91.471,143.399 C91.597,143.268 91.729,143.145 91.862,143.021 C91.958,142.930 92.051,142.838 92.151,142.752 C92.269,142.651 92.392,142.559 92.514,142.463 C92.639,142.365 92.765,142.265 92.896,142.172 C93.000,142.099 93.108,142.034 93.214,141.965 C93.372,141.864 93.527,141.762 93.691,141.670 C93.785,141.616 93.882,141.571 93.978,141.521 C94.156,141.427 94.335,141.335 94.520,141.252 C94.622,141.207 94.726,141.171 94.828,141.129 C95.009,141.056 95.190,140.982 95.378,140.920 C95.522,140.872 95.669,140.837 95.816,140.795 C95.964,140.753 96.110,140.706 96.262,140.672 C96.531,140.610 96.804,140.563 97.077,140.525 C97.111,140.520 97.143,140.511 97.176,140.507 C97.180,140.506 97.184,140.506 97.187,140.506 C97.217,140.501 97.248,140.499 97.278,140.495 C122.820,137.228 144.685,140.452 162.259,143.046 L163.957,143.296 C169.182,144.065 172.794,148.919 172.025,154.139 C171.325,158.888 167.241,162.303 162.577,162.303 ZM87.327,289.690 C87.433,289.528 87.543,289.371 87.659,289.217 C90.018,286.075 93.608,284.002 97.510,283.529 C101.324,283.068 105.214,284.159 108.227,286.530 L149.158,317.061 C153.391,320.218 154.260,326.204 151.099,330.432 C147.940,334.659 141.949,335.529 137.717,332.371 L100.424,304.553 L95.135,312.566 L113.045,338.382 C116.054,342.718 114.975,348.670 110.634,351.676 C108.974,352.826 107.075,353.379 105.196,353.379 C102.164,353.379 99.186,351.943 97.328,349.267 L79.345,323.348 L44.523,330.625 C27.847,335.456 19.125,352.240 19.125,366.410 L19.125,378.640 C19.125,380.245 21.367,382.039 24.369,382.039 L66.938,382.039 C72.218,382.039 76.500,386.316 76.500,391.592 C76.500,396.868 72.218,401.146 66.938,401.146 L24.369,401.146 C10.932,401.146 -0.000,391.050 -0.000,378.640 L-0.000,366.410 C-0.000,344.958 13.621,319.429 39.652,312.145 C39.858,312.087 40.066,312.037 40.275,311.993 L77.779,304.155 L87.327,289.690 ZM141.185,346.065 C141.391,346.008 141.599,345.958 141.808,345.913 L198.703,334.024 L213.743,311.237 C213.849,311.076 213.960,310.918 214.076,310.764 C216.809,307.122 220.974,304.718 225.498,304.168 C230.021,303.620 234.641,304.959 238.170,307.843 C238.231,307.894 238.291,307.946 238.352,307.997 L306.000,366.175 L373.646,307.996 C373.706,307.944 373.768,307.892 373.830,307.842 C377.359,304.958 381.979,303.620 386.502,304.168 C391.026,304.718 395.189,307.122 397.924,310.764 C398.039,310.918 398.151,311.076 398.257,311.237 L413.297,334.024 L470.192,345.913 C470.401,345.958 470.609,346.008 470.814,346.065 C487.358,350.696 501.432,360.944 511.514,375.700 C520.713,389.161 525.778,405.411 525.778,421.459 L525.778,439.421 C525.778,455.180 511.734,468.000 494.470,468.000 L327.771,468.000 C327.759,468.000 327.748,468.001 327.736,468.001 C327.722,468.001 327.709,468.000 327.696,468.000 L284.303,468.000 C284.290,468.000 284.276,468.001 284.263,468.001 C284.251,468.001 284.239,468.000 284.227,468.000 L117.529,468.000 C100.265,468.000 86.220,455.178 86.220,439.421 L86.220,421.459 C86.220,405.412 91.286,389.161 100.485,375.700 C110.569,360.943 124.642,350.695 141.185,346.065 ZM315.561,405.522 L315.561,401.845 L305.999,392.291 L296.436,401.845 L296.436,405.522 C296.436,408.667 298.355,410.755 299.624,410.755 L312.375,410.755 C313.644,410.755 315.562,408.667 315.562,405.522 L315.561,405.522 ZM335.586,448.892 L494.472,448.892 C501.076,448.892 506.656,444.555 506.656,439.421 L506.656,421.460 C506.656,398.922 492.676,372.196 465.951,364.548 L411.581,353.186 L357.227,427.853 C355.583,430.114 353.031,431.541 350.242,431.760 C349.992,431.779 349.742,431.788 349.494,431.788 C346.968,431.788 344.533,430.789 342.733,428.990 L331.582,417.850 C331.076,418.783 330.521,419.679 329.909,420.527 L335.586,448.892 ZM348.343,407.573 L395.855,342.305 L383.983,324.320 L320.048,379.306 L348.343,407.573 ZM316.082,448.893 L312.273,429.863 L299.727,429.863 L295.917,448.893 L316.082,448.893 ZM291.951,379.305 L228.017,324.320 L216.145,342.303 L263.657,407.572 L291.951,379.305 ZM105.344,439.421 C105.344,444.555 110.924,448.892 117.529,448.891 L276.414,448.891 L282.091,420.526 C281.479,419.678 280.923,418.782 280.418,417.848 L269.267,428.989 C267.467,430.788 265.032,431.787 262.506,431.787 C262.257,431.787 262.008,431.779 261.758,431.758 C258.969,431.539 256.417,430.113 254.772,427.852 L200.419,353.185 L146.049,364.547 C119.324,372.195 105.344,398.921 105.344,421.458 L105.344,439.421 Z" class="cls-1"/>
</svg>
