<svg xmlns="http://www.w3.org/2000/svg" xmlns:xlink="http://www.w3.org/1999/xlink" preserveAspectRatio="xMidYMid" width="19.031" height="15" viewBox="0 0 19.031 15">
  <defs>
    <style>
      .cls-1 {
        fill: #fff;
        fill-rule: evenodd;
      }
    </style>
  </defs>
  <path d="M18.828,3.747 C18.654,3.620 18.416,3.622 18.245,3.750 L13.236,7.472 L9.948,0.241 C9.792,-0.099 9.219,-0.099 9.063,0.241 L5.737,7.555 L0.771,3.753 C0.599,3.623 0.359,3.619 0.185,3.744 C0.009,3.871 -0.057,4.096 0.022,4.292 L3.472,12.969 C3.543,13.150 3.723,13.270 3.922,13.270 L15.088,13.270 C15.289,13.270 15.467,13.152 15.538,12.969 L18.988,4.292 C19.066,4.096 19.000,3.873 18.828,3.747 ZM14.756,12.329 L4.253,12.329 L1.559,5.554 L5.628,8.669 C5.745,8.758 5.898,8.791 6.044,8.755 C6.189,8.720 6.309,8.622 6.370,8.489 L9.506,1.594 L12.600,8.399 C12.660,8.530 12.778,8.628 12.922,8.664 C13.065,8.701 13.218,8.670 13.336,8.582 L17.469,5.510 L14.756,12.329 ZM15.521,14.532 C15.521,14.791 15.305,15.002 15.038,15.002 L3.972,15.002 C3.705,15.002 3.488,14.791 3.488,14.532 C3.488,14.272 3.705,14.061 3.972,14.061 L15.038,14.061 C15.305,14.061 15.521,14.272 15.521,14.532 Z" class="cls-1"/>
</svg>
