<svg xmlns="http://www.w3.org/2000/svg" xmlns:xlink="http://www.w3.org/1999/xlink" preserveAspectRatio="xMidYMid" width="799.938" height="752" viewBox="0 0 799.938 752">
  <defs>
    <style>
      .cls-1 {
        fill: #fff;
        fill-rule: evenodd;
      }
    </style>
  </defs>
  <path d="M374.953,651.689 L74.991,701.819 C61.165,701.819 49.994,690.590 49.994,676.754 L49.994,75.195 C49.994,61.410 61.165,50.130 74.991,50.130 L374.953,100.260 C388.779,100.260 399.950,111.489 399.950,125.325 L399.950,50.130 L49.994,0.000 C22.392,0.000 -0.000,22.459 -0.000,50.181 L-0.000,701.869 C-0.000,729.591 22.392,751.999 49.994,751.999 L399.950,701.819 L399.950,626.674 C399.950,640.510 388.779,651.689 374.953,651.689 ZM799.900,375.774 C799.950,371.313 798.497,367.001 796.143,363.041 C795.993,362.740 795.792,362.540 795.642,362.239 C794.740,360.836 794.089,359.281 792.837,358.028 C790.432,355.622 787.577,353.817 784.621,352.614 L541.666,157.459 C532.148,147.934 516.669,147.934 507.151,157.459 C497.633,167.033 497.633,182.524 507.151,192.098 L704.771,350.910 L124.984,350.910 C111.158,350.910 99.987,362.139 99.987,375.975 C99.987,389.861 111.158,401.040 124.984,401.040 L704.771,401.040 L507.101,559.801 C497.583,569.376 497.583,584.866 507.101,594.441 C516.619,604.016 532.098,604.016 541.616,594.441 L784.621,399.285 C787.627,398.082 790.382,396.328 792.837,393.871 C797.696,389.009 800.000,382.592 799.900,376.225 C799.900,376.125 799.950,376.075 799.950,375.975 C799.950,375.925 799.900,375.874 799.900,375.774 Z" class="cls-1"/>
</svg>
