<svg xmlns="http://www.w3.org/2000/svg" xmlns:xlink="http://www.w3.org/1999/xlink" preserveAspectRatio="xMidYMid" width="30" height="36.969" viewBox="0 0 30 36.969">
  <defs>
    <style>
      .cls-1 {
        fill: #6f6f6f;
        fill-rule: evenodd;
      }
    </style>
  </defs>
  <path d="M12.163,36.838 C-9.695,35.206 2.835,12.721 11.749,8.242 C8.761,6.263 6.851,1.718 7.963,0.469 C9.331,-1.068 11.769,1.689 14.006,1.413 C15.584,1.174 18.848,-0.183 20.351,0.126 C21.483,0.359 19.645,5.682 16.893,8.045 C27.264,12.409 42.409,39.096 12.163,36.838 ZM15.754,16.602 L15.754,16.528 L15.754,15.602 C15.754,15.249 15.548,14.922 15.236,14.775 C14.919,14.626 14.536,14.684 14.275,14.920 C14.085,15.092 13.975,15.342 13.975,15.602 L13.975,16.528 L13.975,16.607 C13.102,16.733 12.231,17.077 11.576,17.694 C11.270,17.982 11.020,18.330 10.846,18.718 C10.661,19.131 10.576,19.582 10.580,20.036 C10.583,20.483 10.662,20.933 10.854,21.338 C11.036,21.721 11.314,22.045 11.642,22.305 C12.316,22.841 13.158,23.120 13.975,23.336 L13.975,26.934 C13.557,26.815 13.157,26.613 12.842,26.304 C12.690,26.154 12.557,25.980 12.452,25.793 C12.398,25.697 12.353,25.597 12.315,25.494 C12.277,25.391 12.254,25.283 12.220,25.178 C12.110,24.838 11.804,24.590 11.455,24.558 C11.100,24.526 10.752,24.721 10.587,25.043 C10.507,25.200 10.473,25.380 10.491,25.556 C10.501,25.661 10.532,25.763 10.561,25.864 C10.593,25.975 10.630,26.085 10.672,26.193 C10.831,26.606 11.061,26.989 11.343,27.326 C11.909,28.003 12.683,28.460 13.519,28.695 C13.669,28.737 13.821,28.772 13.975,28.802 L13.975,29.861 C13.975,30.212 14.180,30.540 14.492,30.687 C14.809,30.836 15.192,30.778 15.453,30.542 C15.643,30.370 15.754,30.120 15.754,29.861 L15.754,28.892 C16.647,28.818 17.547,28.554 18.264,27.985 C18.943,27.447 19.398,26.655 19.491,25.778 C19.561,25.117 19.455,24.421 19.132,23.839 C19.195,23.951 19.254,24.057 19.130,23.834 C19.003,23.608 19.065,23.717 19.128,23.830 C18.722,23.106 18.017,22.646 17.273,22.346 C16.781,22.148 16.267,22.011 15.754,21.885 L15.754,18.441 C16.186,18.520 16.618,18.660 16.975,18.929 C17.139,19.053 17.284,19.204 17.395,19.379 C17.452,19.470 17.502,19.566 17.540,19.666 C17.578,19.765 17.597,19.870 17.634,19.969 C17.759,20.304 18.076,20.537 18.426,20.552 C18.781,20.568 19.120,20.358 19.270,20.028 C19.344,19.867 19.370,19.686 19.344,19.510 C19.328,19.400 19.295,19.291 19.261,19.186 C19.225,19.073 19.183,18.962 19.135,18.853 C18.964,18.464 18.721,18.107 18.424,17.808 C17.797,17.176 16.959,16.814 16.101,16.656 C15.986,16.634 15.870,16.616 15.754,16.602 ZM12.826,20.938 C12.665,20.826 12.509,20.686 12.435,20.498 C12.357,20.299 12.345,20.065 12.365,19.855 C12.386,19.645 12.459,19.447 12.575,19.273 C12.886,18.809 13.455,18.567 13.975,18.453 L13.975,21.446 C13.769,21.381 13.578,21.314 13.408,21.245 C13.206,21.162 13.007,21.063 12.826,20.938 ZM17.459,24.560 C17.585,24.701 17.662,24.872 17.700,25.059 C17.769,25.403 17.735,25.782 17.565,26.091 C17.209,26.738 16.431,26.989 15.754,27.068 L15.754,23.760 C16.171,23.873 16.592,23.997 16.976,24.202 C17.153,24.296 17.323,24.409 17.459,24.560 Z" class="cls-1"/>
</svg>
