<svg xmlns="http://www.w3.org/2000/svg" xmlns:xlink="http://www.w3.org/1999/xlink" preserveAspectRatio="xMidYMid" width="31.5" height="32" viewBox="0 0 31.5 32">
  <defs>
    <style>
      .cls-1 {
        fill: #fff;
        fill-rule: evenodd;
      }
    </style>
  </defs>
  <path d="M28.000,26.007 C28.000,13.871 18.129,4.000 5.996,4.000 L5.996,-0.000 C20.336,-0.000 32.000,11.664 32.000,26.007 L28.000,26.007 ZM8.002,28.000 C8.002,30.210 6.211,32.000 4.001,32.000 C1.792,32.000 0.000,30.210 0.000,28.000 C0.000,25.790 1.792,23.999 4.001,23.999 C6.211,23.999 8.002,25.790 8.002,28.000 ZM6.023,16.000 C11.537,16.000 16.025,20.492 16.025,26.007 L12.023,26.007 C12.023,22.695 9.332,20.003 6.023,20.003 L6.023,16.000 ZM5.996,12.000 L5.996,8.000 C15.924,8.000 24.000,16.078 24.000,26.007 L19.998,26.007 C19.998,18.285 13.715,12.000 5.996,12.000 Z" class="cls-1"/>
</svg>
