<svg xmlns="http://www.w3.org/2000/svg" xmlns:xlink="http://www.w3.org/1999/xlink" preserveAspectRatio="xMidYMid" width="9.97" height="9.969" viewBox="0 0 9.97 9.969">
  <defs>
    <style>
      .cls-1 {
        fill: #494949;
        fill-rule: evenodd;
      }
    </style>
  </defs>
  <path d="M0.190,9.757 C0.459,10.026 0.895,10.026 1.163,9.757 L4.974,5.947 L8.784,9.757 C9.052,10.026 9.488,10.026 9.757,9.757 C10.026,9.488 10.026,9.052 9.757,8.784 L5.947,4.974 L9.757,1.163 C10.026,0.895 10.026,0.459 9.757,0.190 C9.488,-0.078 9.052,-0.078 8.784,0.190 L4.974,4.000 L1.163,0.190 C0.895,-0.078 0.459,-0.078 0.190,0.190 C-0.078,0.459 -0.078,0.895 0.190,1.163 L4.000,4.974 L0.190,8.784 C-0.078,9.052 -0.078,9.488 0.190,9.757 Z" class="cls-1"/>
</svg>
