<svg xmlns="http://www.w3.org/2000/svg" xmlns:xlink="http://www.w3.org/1999/xlink" preserveAspectRatio="xMidYMid" width="27" height="23.719" viewBox="0 0 27 23.719">
  <defs>
    <style>
      .cls-1 {
        fill: #000;
        stroke: #fff;
        stroke-width: 3px;
        fill-rule: evenodd;
      }
    </style>
  </defs>
  <path d="M18.955,14.555 C18.936,14.571 18.915,14.584 18.896,14.599 L18.955,14.599 L18.955,14.555 ZM15.748,16.272 C14.719,16.595 13.595,16.781 12.409,16.781 C7.589,16.781 3.682,13.850 3.682,10.236 C3.682,6.620 7.589,3.690 12.409,3.690 C17.229,3.690 21.136,6.620 21.136,10.236 C21.136,10.613 21.084,10.980 21.003,11.340 C21.048,11.337 21.091,11.327 21.136,11.327 C21.916,11.327 22.595,11.739 22.981,12.354 C23.194,11.675 23.318,10.968 23.318,10.236 C23.318,5.416 18.434,1.508 12.409,1.508 C6.384,1.508 1.500,5.416 1.500,10.236 C1.500,13.464 3.697,16.276 6.955,17.786 L6.955,21.144 C6.955,22.350 7.562,22.562 8.310,21.617 L10.594,18.832 C11.186,18.912 11.789,18.963 12.409,18.963 C13.807,18.963 15.136,18.745 16.363,18.359 C15.945,17.961 15.682,17.403 15.682,16.781 C15.682,16.605 15.708,16.436 15.748,16.272 ZM24.409,15.690 L22.227,15.690 L22.227,13.508 C22.227,12.905 21.738,12.417 21.136,12.417 C20.533,12.417 20.045,12.905 20.045,13.508 L20.045,15.690 L17.863,15.690 C17.261,15.690 16.772,16.178 16.772,16.781 C16.772,17.383 17.261,17.871 17.863,17.871 L20.045,17.871 L20.045,20.053 C20.045,20.656 20.533,21.144 21.136,21.144 C21.738,21.144 22.227,20.656 22.227,20.053 L22.227,17.871 L24.409,17.871 C25.011,17.871 25.500,17.383 25.500,16.781 C25.500,16.178 25.011,15.690 24.409,15.690 Z" class="cls-1"/>
</svg>
