<svg xmlns="http://www.w3.org/2000/svg" xmlns:xlink="http://www.w3.org/1999/xlink" preserveAspectRatio="xMidYMid" width="15" height="15" viewBox="0 0 15 15">
  <defs>
    <style>
      .cls-1 {
        fill: #00b4ff;
        fill-rule: evenodd;
      }
    </style>
  </defs>
  <path d="M7.500,0.943 C11.113,0.943 14.053,3.889 14.053,7.509 C14.053,11.129 11.113,14.075 7.500,14.075 C3.887,14.075 0.947,11.129 0.947,7.509 C0.947,3.889 3.887,0.943 7.500,0.943 M7.500,0.005 C3.364,0.005 0.010,3.365 0.010,7.509 C0.010,11.653 3.364,15.013 7.500,15.013 C11.636,15.013 14.989,11.653 14.989,7.509 C14.989,3.365 11.636,0.005 7.500,0.005 L7.500,0.005 ZM7.500,1.881 C4.397,1.881 1.883,4.400 1.883,7.509 C1.883,10.617 4.397,13.137 7.500,13.137 C10.602,13.137 13.117,10.617 13.117,7.509 C13.117,4.400 10.602,1.881 7.500,1.881 ZM9.542,10.407 C9.174,10.821 8.642,11.064 7.946,11.138 L7.946,12.199 L7.059,12.199 L7.059,11.143 C5.899,11.024 5.181,10.348 4.904,9.117 L6.276,8.759 C6.403,9.533 6.823,9.919 7.537,9.919 C7.871,9.919 8.118,9.837 8.275,9.671 C8.432,9.505 8.511,9.306 8.511,9.071 C8.511,8.828 8.432,8.644 8.275,8.520 C8.118,8.394 7.768,8.236 7.226,8.043 C6.738,7.874 6.357,7.707 6.083,7.540 C5.809,7.375 5.585,7.144 5.414,6.846 C5.244,6.547 5.158,6.199 5.158,5.804 C5.158,5.284 5.311,4.816 5.617,4.400 C5.922,3.985 6.403,3.732 7.059,3.639 L7.059,2.819 L7.946,2.819 L7.946,3.639 C8.937,3.758 9.579,4.320 9.870,5.325 L8.649,5.827 C8.411,5.138 8.043,4.793 7.544,4.793 C7.293,4.793 7.092,4.870 6.941,5.024 C6.789,5.178 6.714,5.365 6.714,5.584 C6.714,5.807 6.787,5.979 6.933,6.099 C7.078,6.218 7.392,6.365 7.871,6.542 C8.398,6.734 8.811,6.917 9.110,7.088 C9.410,7.259 9.648,7.496 9.828,7.798 C10.006,8.100 10.095,8.453 10.095,8.857 C10.095,9.477 9.911,9.993 9.542,10.407 Z" class="cls-1"/>
</svg>
