<svg xmlns="http://www.w3.org/2000/svg" xmlns:xlink="http://www.w3.org/1999/xlink" preserveAspectRatio="xMidYMid" width="21.031" height="21.031" viewBox="0 0 21.031 21.031">
  <defs>
    <style>
      .cls-1 {
        fill: #acbace;
        fill-rule: evenodd;
      }
    </style>
  </defs>
  <path d="M17.376,14.124 L17.376,13.357 L17.376,7.654 L17.376,6.887 L21.024,10.505 L17.376,14.124 ZM10.505,14.535 C8.280,14.535 6.476,12.732 6.476,10.505 C6.476,8.280 8.280,6.476 10.505,6.476 C12.732,6.476 14.535,8.280 14.535,10.505 C14.535,12.730 12.732,14.535 10.505,14.535 ZM10.505,7.366 C8.772,7.366 7.367,8.772 7.367,10.505 C7.367,12.239 8.774,13.645 10.505,13.645 C12.239,13.645 13.645,12.239 13.645,10.505 C13.645,8.772 12.239,7.366 10.505,7.366 ZM7.654,3.635 L6.887,3.635 L10.505,-0.013 L14.124,3.635 L13.357,3.635 L7.654,3.635 ZM3.636,6.887 L3.636,7.654 L3.636,13.357 L3.636,14.124 L-0.013,10.505 L3.636,6.887 ZM13.357,17.376 L14.124,17.376 L10.504,21.024 L6.886,17.376 L7.653,17.376 L13.357,17.376 Z" class="cls-1"/>
</svg>
