<svg xmlns="http://www.w3.org/2000/svg" xmlns:xlink="http://www.w3.org/1999/xlink" preserveAspectRatio="xMidYMid" width="48.281" height="29.406" viewBox="0 0 48.281 29.406">
  <defs>
    <style>
      .cls-1 {
        fill: #fff;
        fill-rule: evenodd;
      }
    </style>
  </defs>
  <path d="M44.097,7.392 C40.226,-0.418 36.078,-0.963 32.216,0.898 C31.059,1.456 30.064,2.171 29.335,3.102 L18.945,3.102 C18.216,2.171 17.221,1.456 16.064,0.898 C12.202,-0.963 8.055,-0.418 4.183,7.392 C0.309,15.200 -1.820,27.317 2.042,29.179 C4.416,30.322 8.500,27.317 12.194,23.022 C13.254,24.946 15.321,26.251 17.697,26.251 C20.747,26.251 23.286,24.100 23.841,21.254 L24.438,21.254 C24.993,24.100 27.532,26.251 30.582,26.251 C32.947,26.251 35.005,24.957 36.069,23.049 C40.006,27.448 44.045,30.234 46.235,29.179 C50.100,27.317 47.968,15.200 44.097,7.392 ZM13.424,14.536 C13.424,14.605 13.402,14.669 13.384,14.732 C13.310,14.993 13.106,15.186 12.838,15.252 C12.780,15.264 12.725,15.286 12.663,15.286 L12.110,15.286 L10.160,15.286 C9.739,15.286 9.399,14.949 9.399,14.536 L9.399,13.021 L7.861,13.021 C7.441,13.021 7.100,12.685 7.100,12.271 L7.100,9.804 C7.100,9.390 7.441,9.053 7.861,9.053 L9.399,9.053 L9.399,7.536 C9.399,7.123 9.739,6.786 10.160,6.786 L12.111,6.786 L12.663,6.786 C13.084,6.786 13.424,7.123 13.424,7.536 L13.424,9.053 L14.962,9.053 C15.383,9.053 15.723,9.390 15.723,9.804 L15.723,12.271 C15.723,12.685 15.383,13.021 14.962,13.021 L13.424,13.021 L13.424,14.536 ZM17.697,23.803 C15.613,23.803 13.923,22.138 13.923,20.083 C13.923,18.029 15.613,16.363 17.697,16.363 C19.781,16.363 21.471,18.029 21.471,20.083 C21.471,22.138 19.781,23.803 17.697,23.803 ZM30.582,23.803 C28.497,23.803 26.808,22.138 26.808,20.083 C26.808,18.029 28.497,16.363 30.582,16.363 C32.666,16.363 34.355,18.029 34.355,20.083 C34.355,22.138 32.666,23.803 30.582,23.803 ZM34.087,12.465 C33.288,12.465 32.640,11.825 32.640,11.036 C32.640,10.250 33.288,9.610 34.087,9.610 C34.887,9.610 35.534,10.250 35.534,11.036 C35.534,11.825 34.887,12.465 34.087,12.465 ZM37.599,15.301 C37.435,15.365 37.259,15.407 37.072,15.407 C37.042,15.407 37.016,15.391 36.987,15.389 C36.312,15.349 35.785,14.858 35.673,14.215 C35.660,14.136 35.625,14.063 35.625,13.979 C35.625,13.192 36.271,12.552 37.072,12.552 C37.259,12.552 37.435,12.594 37.599,12.657 C38.136,12.865 38.518,13.376 38.518,13.979 C38.518,14.582 38.136,15.092 37.599,15.301 ZM37.599,9.418 C37.435,9.481 37.259,9.523 37.072,9.523 C36.271,9.523 35.625,8.883 35.625,8.096 C35.625,7.308 36.271,6.668 37.072,6.668 C37.259,6.668 37.435,6.710 37.599,6.774 C38.136,6.982 38.518,7.493 38.518,8.096 C38.518,8.699 38.136,9.209 37.599,9.418 ZM40.056,12.465 C39.255,12.465 38.609,11.825 38.609,11.036 C38.609,10.250 39.256,9.610 40.056,9.610 C40.856,9.610 41.502,10.250 41.502,11.036 C41.502,11.825 40.856,12.465 40.056,12.465 Z" class="cls-1"/>
</svg>
