<svg xmlns="http://www.w3.org/2000/svg" xmlns:xlink="http://www.w3.org/1999/xlink" preserveAspectRatio="xMidYMid" width="31" height="31" viewBox="0 0 31 31">
  <defs>
    <style>
      .cls-1 {
        fill: #6f6f6f;
        fill-rule: evenodd;
      }
    </style>
  </defs>
  <path d="M31.008,22.601 L30.945,30.991 L23.414,30.991 L23.469,29.932 L23.470,29.894 L23.472,29.847 C23.489,27.609 22.599,25.414 21.033,23.825 C20.423,23.206 19.722,22.688 18.962,22.288 C19.490,21.175 19.774,19.947 19.774,18.691 C19.774,15.252 17.703,12.289 14.751,11.004 C14.987,7.724 17.703,5.135 21.021,5.135 C24.494,5.135 27.308,7.970 27.308,11.468 C27.308,13.337 26.500,15.011 25.221,16.170 C26.703,16.309 28.100,16.962 29.156,18.036 C30.354,19.251 31.020,20.892 31.008,22.601 ZM9.898,7.621 L7.565,7.621 L7.565,9.973 C7.565,10.948 6.780,11.739 5.811,11.739 C4.843,11.739 4.056,10.948 4.056,9.973 L4.056,7.621 L1.754,7.621 C0.785,7.621 0.001,6.829 0.001,5.854 C0.001,4.879 0.785,4.087 1.754,4.087 L4.056,4.087 L4.056,1.770 C4.056,0.795 4.843,0.005 5.811,0.005 C6.780,0.005 7.565,0.795 7.565,1.770 L7.565,4.087 L9.898,4.087 C10.866,4.087 11.652,4.879 11.652,5.854 C11.652,6.829 10.866,7.621 9.898,7.621 ZM7.257,23.391 C5.980,22.232 5.174,20.559 5.174,18.692 C5.174,15.194 7.988,12.359 11.462,12.359 C14.934,12.359 17.749,15.194 17.749,18.692 C17.749,20.561 16.939,22.236 15.661,23.395 C17.143,23.533 18.539,24.185 19.596,25.259 C20.794,26.474 21.460,28.115 21.447,29.826 L21.385,30.992 L10.880,30.992 L1.319,30.992 L1.382,29.731 C1.405,26.373 3.988,23.646 7.257,23.391 Z" class="cls-1"/>
</svg>
