<svg xmlns="http://www.w3.org/2000/svg" xmlns:xlink="http://www.w3.org/1999/xlink" preserveAspectRatio="xMidYMid" width="22.657" height="16.687" viewBox="0 0 22.657 16.687">
  <defs>
    <style>
      .cls-1 {
        fill: #fff;
        fill-rule: evenodd;
      }
    </style>
  </defs>
  <path d="M21.739,9.269 L6.719,9.269 C6.212,9.269 5.802,8.859 5.802,8.353 C5.802,7.848 6.212,7.438 6.719,7.438 L21.739,7.438 C22.246,7.438 22.656,7.848 22.656,8.353 C22.656,8.859 22.246,9.269 21.739,9.269 ZM21.739,3.311 L6.719,3.311 C6.212,3.311 5.802,2.901 5.802,2.395 C5.802,1.890 6.212,1.480 6.719,1.480 L21.739,1.480 C22.246,1.480 22.656,1.890 22.656,2.395 C22.656,2.901 22.246,3.311 21.739,3.311 ZM2.386,16.701 C1.065,16.701 -0.009,15.629 -0.009,14.311 C-0.009,12.994 1.065,11.921 2.386,11.921 C3.706,11.921 4.780,12.994 4.780,14.311 C4.780,15.629 3.706,16.701 2.386,16.701 ZM2.386,13.074 C1.702,13.074 1.146,13.629 1.146,14.311 C1.146,14.993 1.702,15.548 2.386,15.548 C3.069,15.548 3.625,14.993 3.625,14.311 C3.625,13.629 3.069,13.074 2.386,13.074 ZM2.386,10.743 C1.065,10.743 -0.009,9.671 -0.009,8.353 C-0.009,7.035 1.065,5.964 2.386,5.964 C3.706,5.964 4.780,7.035 4.780,8.353 C4.780,9.671 3.706,10.743 2.386,10.743 ZM2.386,7.116 C1.702,7.116 1.146,7.671 1.146,8.353 C1.146,9.035 1.702,9.590 2.386,9.590 C3.069,9.590 3.625,9.035 3.625,8.353 C3.625,7.671 3.069,7.116 2.386,7.116 ZM2.386,4.785 C1.065,4.785 -0.009,3.713 -0.009,2.395 C-0.009,1.077 1.065,0.006 2.386,0.006 C3.706,0.006 4.780,1.077 4.780,2.395 C4.780,3.713 3.706,4.785 2.386,4.785 ZM2.386,1.158 C1.702,1.158 1.146,1.713 1.146,2.395 C1.146,3.077 1.702,3.632 2.386,3.632 C3.069,3.632 3.625,3.077 3.625,2.395 C3.625,1.713 3.069,1.158 2.386,1.158 ZM6.719,13.396 L21.739,13.396 C22.246,13.396 22.656,13.806 22.656,14.311 C22.656,14.817 22.246,15.227 21.739,15.227 L6.719,15.227 C6.212,15.227 5.802,14.817 5.802,14.311 C5.802,13.806 6.212,13.396 6.719,13.396 Z" class="cls-1"/>
</svg>
