<?xml version="1.0" standalone="no"?>
<!DOCTYPE svg PUBLIC "-//W3C//DTD SVG 20010904//EN"
 "http://www.w3.org/TR/2001/REC-SVG-20010904/DTD/svg10.dtd">
<svg version="1.0" xmlns="http://www.w3.org/2000/svg"
 width="509.000000pt" height="94.000000pt" viewBox="0 0 509.000000 94.000000"
 preserveAspectRatio="xMidYMid meet">
<metadata>
Created by potrace 1.13, written by Peter Selinger 2001-2015
</metadata>
<g transform="translate(0.000000,94.000000) scale(0.100000,-0.100000)"
fill="#000000" stroke="none">
<path d="M1 728 c1 -204 1 -210 14 -151 18 85 59 156 125 223 67 66 138 107
223 125 59 13 53 13 -150 14 l-213 1 1 -212z"/>
<path d="M569 929 c111 -22 234 -107 301 -207 90 -136 93 -347 7 -494 -57 -98
-195 -195 -308 -217 -28 -6 88 -9 325 -10 l369 -1 -21 23 c-22 23 -22 30 -20
228 l3 204 220 5 c196 4 224 7 253 25 88 53 116 177 59 263 -50 76 -75 82
-322 82 l-215 0 0 29 c0 15 9 40 21 55 l20 26 -368 -1 c-236 -1 -352 -4 -324
-10z"/>
<path d="M1680 931 c134 -41 215 -150 214 -291 0 -117 -50 -197 -161 -258
l-53 -28 103 -175 103 -174 369 -1 c238 -1 354 1 325 7 -75 15 -171 68 -233
130 -252 252 -133 691 212 781 65 17 58 17 -419 17 -267 -1 -474 -4 -460 -8z"/>
<path d="M2778 929 c55 -10 156 -56 177 -79 18 -20 11 -44 -23 -82 -14 -17
-16 -16 -43 3 -45 31 -137 59 -199 59 -186 0 -336 -127 -370 -312 -27 -143 57
-303 197 -374 53 -26 67 -29 159 -29 98 0 104 1 173 37 l71 37 25 -37 c14 -20
25 -42 25 -49 0 -16 -134 -81 -190 -92 -28 -6 130 -9 430 -10 l475 0 -66 22
c-69 24 -142 76 -179 127 -11 16 -33 55 -48 87 l-27 58 0 301 c0 283 1 303 19
323 l19 21 -334 -1 c-211 -1 -318 -4 -291 -10z"/>
<path d="M3470 623 c4 -271 8 -324 22 -355 48 -106 133 -162 247 -162 83 0
133 17 184 63 79 71 81 84 87 449 l5 322 -275 0 -275 0 5 -317z"/>
<path d="M4099 916 c22 -24 22 -25 19 -327 l-3 -304 -32 -67 c-50 -105 -142
-182 -250 -207 -25 -6 97 -9 340 -10 l378 -1 -22 29 c-12 16 -18 34 -15 40 5
7 63 11 169 11 89 0 178 5 199 10 74 21 130 114 114 192 -17 86 -97 137 -216
138 -128 0 -227 67 -264 178 -44 126 19 265 144 321 l45 21 -314 0 -314 0 22
-24z"/>
<path d="M5014 921 c10 -11 16 -31 14 -46 l-3 -27 -132 1 c-142 2 -195 -7
-237 -40 -84 -66 -75 -206 16 -266 33 -23 54 -27 146 -33 95 -5 112 -9 149
-34 47 -31 86 -78 108 -128 13 -29 14 1 15 280 l0 312 -47 0 c-45 0 -46 -1
-29 -19z"/>
<path d="M400 829 c-117 -24 -229 -118 -270 -227 -30 -79 -30 -186 1 -267 31
-83 121 -173 204 -205 199 -76 422 29 485 229 46 146 3 292 -117 395 -71 60
-208 95 -303 75z"/>
<path d="M1 213 l-1 -213 213 1 c203 1 209 1 150 14 -84 18 -156 58 -223 125
-66 66 -106 137 -125 223 -13 59 -13 53 -14 -150z"/>
<path d="M1328 175 l-3 -175 217 0 217 0 -102 172 -103 173 -111 3 -112 3 -3
-176z"/>
</g>
</svg>
