<svg xmlns="http://www.w3.org/2000/svg" xmlns:xlink="http://www.w3.org/1999/xlink" preserveAspectRatio="xMidYMid" width="499.125" height="507" viewBox="0 0 499.125 507">
  <defs>
    <style>
      .cls-1 {
        fill: #fff;
        fill-rule: evenodd;
      }
    </style>
  </defs>
  <path d="M436.295,280.251 C436.295,272.608 438.843,264.965 438.843,254.774 C438.843,244.583 438.843,236.939 436.295,229.296 L489.808,185.984 C494.905,180.889 494.905,175.793 492.356,170.698 L441.392,81.527 C438.843,78.979 433.747,76.431 426.102,78.979 L362.397,104.457 C349.655,94.266 334.366,86.622 319.077,78.979 L308.884,12.738 C311.432,5.094 303.787,-0.001 298.691,-0.001 L196.762,-0.001 C191.665,-0.001 184.020,5.094 184.020,10.190 L173.828,78.979 C158.538,84.075 145.797,94.266 130.508,104.457 L69.350,78.979 C61.705,76.431 56.609,78.979 51.512,84.075 L0.548,173.246 C-2.000,175.793 0.548,183.437 5.644,188.532 L59.157,229.296 C59.157,236.939 56.609,244.583 56.609,254.774 C56.609,264.965 56.609,272.608 59.157,280.251 L5.644,323.563 C0.548,328.658 0.548,333.754 3.096,338.849 L54.061,428.020 C56.609,430.568 61.705,433.116 69.350,430.568 L133.056,405.091 C145.797,415.282 161.086,422.925 176.376,430.568 L186.569,496.810 C186.569,501.905 191.665,507.001 199.310,507.001 L301.239,507.001 C306.336,507.001 313.980,501.905 313.980,496.810 L324.173,430.568 C339.463,422.925 354.752,415.282 367.493,405.091 L431.199,430.568 C436.295,433.116 443.940,430.568 446.488,425.473 L497.453,336.302 C500.001,331.206 500.001,323.563 494.905,321.015 L436.295,280.251 ZM247.726,343.945 C199.310,343.945 158.538,303.181 158.538,254.774 C158.538,206.366 199.310,165.602 247.726,165.602 C296.143,165.602 336.914,206.366 336.914,254.774 C336.914,303.181 296.143,343.945 247.726,343.945 Z" class="cls-1"/>
</svg>
