<svg xmlns="http://www.w3.org/2000/svg" xmlns:xlink="http://www.w3.org/1999/xlink" preserveAspectRatio="xMidYMid" width="247" height="143.875" viewBox="0 0 247 143.875">
  <defs>
    <style>
      .cls-1 {
        fill: #fff;
        fill-rule: evenodd;
      }
    </style>
  </defs>
  <path d="M203.178,86.419 C201.156,86.419 199.211,86.092 197.266,85.826 L167.741,108.671 C167.911,109.933 168.135,111.180 168.135,112.471 C168.135,129.784 153.835,143.868 136.263,143.868 C119.189,143.868 105.337,130.560 104.531,113.938 L49.481,90.143 C44.426,93.494 38.342,95.447 31.798,95.447 C14.229,95.447 -0.074,81.372 -0.074,64.051 C-0.074,46.742 14.229,32.663 31.798,32.663 C49.365,32.663 63.676,46.742 63.676,64.051 C63.676,64.667 63.534,65.233 63.491,65.849 L115.917,88.501 C121.454,83.941 128.492,81.083 136.263,81.083 C138.748,81.083 141.149,81.433 143.479,81.965 L161.058,54.635 C160.024,50.968 159.298,47.179 159.298,43.193 C159.298,19.363 178.985,-0.014 203.178,-0.014 C227.371,-0.014 247.057,19.363 247.057,43.200 C247.057,67.031 227.371,86.419 203.178,86.419 ZM31.798,49.334 C23.563,49.334 16.853,55.942 16.853,64.051 C16.853,72.168 23.563,78.769 31.798,78.769 C40.039,78.769 46.750,72.168 46.750,64.051 C46.750,55.935 40.039,49.334 31.798,49.334 ZM136.263,97.226 C127.736,97.226 120.791,104.066 120.791,112.464 C120.791,120.870 127.736,127.702 136.263,127.702 C144.791,127.702 151.728,120.870 151.728,112.464 C151.728,104.066 144.791,97.226 136.263,97.226 ZM203.178,18.508 C189.349,18.508 178.113,29.581 178.113,43.193 C178.113,56.805 189.349,67.882 203.178,67.882 C217.007,67.882 228.243,56.805 228.243,43.193 C228.243,29.581 217.007,18.508 203.178,18.508 ZM203.000,58.875 C194.163,58.875 187.000,51.712 187.000,42.875 C187.000,34.038 194.163,26.875 203.000,26.875 C211.837,26.875 219.000,34.038 219.000,42.875 C219.000,51.712 211.837,58.875 203.000,58.875 Z" class="cls-1"/>
</svg>
