<svg xmlns="http://www.w3.org/2000/svg" xmlns:xlink="http://www.w3.org/1999/xlink" preserveAspectRatio="xMidYMid" width="28" height="23.375" viewBox="0 0 28 23.375">
  <defs>
    <style>
      .cls-1 {
        stroke: #757e8b;
        stroke-width: 2px;
        fill: none;
        fill-rule: evenodd;
      }
    </style>
  </defs>
  <path d="M21.840,2.326 C21.856,1.519 21.827,1.010 21.827,1.010 L14.039,1.004 L14.039,1.004 L14.000,1.004 L13.961,1.004 L13.961,1.004 L6.172,1.010 C6.172,1.010 6.144,1.519 6.160,2.326 L1.002,2.326 L1.002,3.186 C1.002,3.382 1.035,8.014 3.861,10.552 C5.040,11.610 6.511,12.142 8.246,12.143 C8.508,12.143 8.778,12.126 9.051,12.102 C10.036,13.467 11.174,14.422 12.454,14.898 L12.454,18.677 L8.696,18.677 L8.696,21.043 L7.454,21.043 L7.454,22.370 L13.961,22.370 L14.039,22.370 L20.545,22.370 L20.545,21.043 L19.303,21.043 L19.303,18.677 L15.546,18.677 L15.546,14.898 C16.825,14.422 17.963,13.467 18.949,12.102 C19.223,12.126 19.493,12.143 19.754,12.143 C21.489,12.142 22.959,11.610 24.138,10.552 C26.965,8.014 26.998,3.382 26.998,3.186 L26.998,2.326 L21.840,2.326 ZM4.996,9.269 C3.381,7.824 2.904,5.350 2.762,4.046 L6.258,4.046 C6.405,5.671 6.753,7.695 7.556,9.474 C7.703,9.800 7.858,10.110 8.016,10.412 C6.812,10.366 5.798,9.985 4.996,9.269 ZM23.004,9.269 C22.202,9.986 21.188,10.366 19.985,10.412 C20.142,10.110 20.297,9.800 20.444,9.474 C21.247,7.695 21.595,5.671 21.742,4.046 L25.237,4.046 C25.096,5.349 24.618,7.823 23.004,9.269 Z" class="cls-1"/>
</svg>
