<svg xmlns="http://www.w3.org/2000/svg" xmlns:xlink="http://www.w3.org/1999/xlink" preserveAspectRatio="xMidYMid" width="15.5" height="20.375" viewBox="0 0 15.5 20.375">
  <defs>
    <style>
      .cls-1 {
        fill: #364352;
        fill-rule: evenodd;
      }
    </style>
  </defs>
  <path d="M15.508,17.694 C15.509,17.376 15.510,17.648 15.508,17.694 ZM7.756,20.365 C1.145,20.365 0.004,18.067 0.004,18.067 C0.004,17.799 0.003,17.646 0.003,17.563 C0.004,17.607 0.008,17.587 0.015,17.206 C0.102,12.541 0.767,11.196 5.508,10.341 C5.508,10.341 6.183,11.200 7.756,11.200 C9.328,11.200 10.003,10.341 10.003,10.341 C14.797,11.205 15.423,12.570 15.499,17.362 C15.504,17.669 15.507,17.722 15.508,17.694 C15.508,17.775 15.508,17.895 15.508,18.067 C15.508,18.067 14.366,20.365 7.756,20.365 ZM7.756,9.959 C5.489,9.959 3.651,7.729 3.651,4.978 C3.651,2.227 4.255,-0.002 7.756,-0.002 C11.257,-0.002 11.860,2.227 11.860,4.978 C11.860,7.729 10.022,9.959 7.756,9.959 ZM0.003,17.563 C0.002,17.516 0.002,17.395 0.003,17.563 Z" class="cls-1"/>
</svg>
