<svg xmlns="http://www.w3.org/2000/svg" xmlns:xlink="http://www.w3.org/1999/xlink" preserveAspectRatio="xMidYMid" width="22" height="22" viewBox="0 0 22 22">
  <defs>
    <style>
      .cls-1 {
        fill: #757e8b;
        fill-rule: evenodd;
      }
    </style>
  </defs>
  <path d="M11.000,22.000 C4.935,22.000 0.000,17.065 0.000,11.000 C0.000,4.934 4.935,-0.000 11.000,-0.000 C17.065,-0.000 22.000,4.934 22.000,11.000 C22.000,17.065 17.065,22.000 11.000,22.000 ZM11.000,1.257 C5.627,1.257 1.257,5.628 1.257,11.000 C1.257,16.372 5.627,20.742 11.000,20.742 C16.372,20.742 20.742,16.372 20.742,11.000 C20.742,5.628 16.372,1.257 11.000,1.257 ZM15.337,11.628 L11.628,11.628 L11.628,15.337 C11.628,15.685 11.348,15.965 11.000,15.965 C10.653,15.965 10.371,15.684 10.371,15.337 L10.371,11.628 L6.663,11.628 C6.316,11.628 6.034,11.347 6.034,11.000 C6.034,10.653 6.315,10.371 6.663,10.371 L10.371,10.371 L10.371,6.663 C10.371,6.315 10.653,6.034 11.000,6.034 C11.347,6.034 11.628,6.315 11.628,6.663 L11.628,10.371 L15.337,10.371 C15.684,10.371 15.965,10.653 15.965,11.000 C15.965,11.347 15.685,11.628 15.337,11.628 Z" class="cls-1"/>
</svg>
