<svg xmlns="http://www.w3.org/2000/svg" xmlns:xlink="http://www.w3.org/1999/xlink" preserveAspectRatio="xMidYMid" width="28.407" height="21.281" viewBox="0 0 28.407 21.281">
  <defs>
    <style>
      .cls-1 {
        fill: #757e8b;
        fill-rule: evenodd;
      }
    </style>
  </defs>
  <path d="M28.399,18.800 L26.032,18.800 C26.032,16.552 24.376,14.659 22.246,14.186 C21.654,14.067 21.299,13.594 21.299,13.002 C21.299,12.647 21.417,12.292 21.772,12.056 C22.837,11.227 23.666,9.807 23.666,8.269 C23.666,6.021 22.127,4.009 19.406,3.536 C19.287,3.181 19.169,2.826 18.932,2.471 C18.696,1.997 18.459,1.524 18.104,1.169 C22.246,0.696 26.032,4.009 26.032,8.269 C26.032,9.807 25.441,11.346 24.494,12.529 C26.861,13.712 28.399,16.197 28.399,18.800 ZM21.299,21.286 L18.932,21.286 C18.341,17.262 14.791,14.186 10.649,14.186 C6.507,14.186 2.957,17.262 2.366,21.286 L-0.001,21.286 C0.472,17.499 2.957,14.304 6.389,12.766 C4.614,11.464 3.549,9.334 3.549,7.086 C3.549,3.181 6.744,-0.014 10.649,-0.014 C14.554,-0.014 17.749,3.181 17.749,7.086 C17.749,9.334 16.684,11.464 14.909,12.766 C18.341,14.304 20.826,17.499 21.299,21.286 ZM15.382,7.086 C15.382,4.482 13.252,2.352 10.649,2.352 C8.046,2.352 5.916,4.482 5.916,7.086 C5.916,9.689 8.046,11.819 10.649,11.819 C13.252,11.819 15.382,9.689 15.382,7.086 Z" class="cls-1"/>
</svg>
