<svg xmlns="http://www.w3.org/2000/svg" xmlns:xlink="http://www.w3.org/1999/xlink" preserveAspectRatio="xMidYMid" width="17" height="24.281" viewBox="0 0 17 24.281">
  <defs>
    <style>
      .cls-1 {
        fill: #8791a0;
        fill-rule: evenodd;
      }
    </style>
  </defs>
  <path d="M8.496,17.340 C3.730,17.340 0.000,15.056 0.000,12.131 C0.000,11.571 0.451,11.120 1.011,11.120 C1.570,11.120 2.021,11.571 2.021,12.131 C2.021,13.638 4.681,15.313 8.496,15.313 C12.310,15.313 14.970,13.633 14.970,12.131 C14.970,11.571 15.421,11.120 15.981,11.120 C16.541,11.120 16.991,11.571 16.991,12.131 C16.991,15.051 13.261,17.340 8.496,17.340 ZM8.496,10.402 C3.730,10.402 0.000,8.117 0.000,5.193 C0.000,2.274 3.730,-0.011 8.496,-0.011 C13.261,-0.011 16.991,2.274 16.991,5.198 C16.991,8.117 13.261,10.402 8.496,10.402 ZM8.496,2.011 C4.681,2.011 2.021,3.691 2.021,5.193 C2.021,6.699 4.681,8.375 8.496,8.375 C12.310,8.375 14.970,6.699 14.970,5.193 C14.970,3.691 12.310,2.011 8.496,2.011 ZM10.532,6.427 C10.091,6.600 9.521,6.694 8.818,6.704 L8.818,7.081 L8.228,7.081 L8.228,6.704 C7.728,6.680 7.322,6.640 7.005,6.580 C6.693,6.521 6.420,6.422 6.192,6.288 C5.964,6.154 5.831,5.991 5.796,5.792 L6.802,5.723 C6.881,5.926 7.015,6.070 7.213,6.169 C7.495,6.303 7.832,6.377 8.228,6.392 L8.228,5.198 C7.817,5.168 7.396,5.108 6.965,5.019 C6.648,4.955 6.400,4.861 6.227,4.742 C6.054,4.623 5.969,4.489 5.969,4.340 C5.969,4.073 6.222,3.860 6.727,3.691 C7.064,3.582 7.564,3.513 8.228,3.488 L8.228,3.309 L8.818,3.309 L8.818,3.488 C9.402,3.508 9.863,3.572 10.205,3.681 C10.641,3.815 10.908,4.003 10.997,4.241 L9.962,4.301 C9.903,4.152 9.779,4.043 9.591,3.964 C9.402,3.884 9.145,3.835 8.818,3.810 L8.818,4.890 C9.323,4.940 9.655,4.975 9.818,4.999 C10.130,5.049 10.383,5.113 10.581,5.188 C10.779,5.262 10.928,5.351 11.037,5.450 C11.141,5.550 11.196,5.664 11.196,5.778 C11.196,6.035 10.973,6.253 10.532,6.427 ZM8.228,3.800 C7.837,3.820 7.530,3.879 7.307,3.974 C7.084,4.068 6.970,4.182 6.970,4.311 C6.970,4.439 7.064,4.543 7.257,4.633 C7.450,4.717 7.772,4.786 8.228,4.841 L8.228,3.800 ZM9.893,5.475 C9.714,5.391 9.353,5.317 8.818,5.252 L8.818,6.392 C9.209,6.372 9.531,6.313 9.784,6.204 C10.036,6.095 10.165,5.961 10.165,5.802 C10.165,5.669 10.076,5.555 9.893,5.475 ZM1.011,18.054 C1.570,18.054 2.021,18.505 2.021,19.065 C2.021,20.572 4.681,22.247 8.496,22.247 C12.310,22.247 14.970,20.572 14.970,19.065 C14.970,18.505 15.421,18.054 15.981,18.054 C16.541,18.054 16.991,18.505 16.991,19.065 C16.991,21.989 13.261,24.274 8.496,24.274 C3.730,24.274 0.000,21.989 0.000,19.065 C0.000,18.505 0.451,18.054 1.011,18.054 Z" class="cls-1"/>
</svg>
